<svg xmlns="http://www.w3.org/2000/svg" xmlns:xlink="http://www.w3.org/1999/xlink" fill="none" version="1.1" width="16" height="16" viewBox="0 0 16 16"><g style="mix-blend-mode:passthrough"><g><g style="mix-blend-mode:passthrough"></g><g style="mix-blend-mode:passthrough"><g><g style="mix-blend-mode:passthrough"><path d="M13.939999998658896,6.769999861717224L2.0599999986588955,6.769999861717224Q2.0107542986588953,6.769999861717224,1.9624548986588954,6.760392861717224Q1.9141549986588955,6.750784861717224,1.8686579986588954,6.731939861717224Q1.8231609986588955,6.713093861717224,1.7822149986588955,6.685734861717224Q1.7412689986588954,6.658374861717224,1.7064469986588955,6.623552861717224Q1.6716249986588956,6.588730861717224,1.6442649986588955,6.547784861717224Q1.6169059986588956,6.506838861717224,1.5980599986588955,6.461341861717224Q1.5792149986588955,6.415844861717224,1.5696069986588954,6.367544961717224Q1.5599999986588955,6.319245561717224,1.5599999986588955,6.269999861717224Q1.5599999986588955,6.220754161717224,1.5696069986588954,6.1724547617172245Q1.5792149986588955,6.124154861717225,1.5980599986588955,6.078657861717224Q1.6169059986588956,6.033160861717224,1.6442649986588955,5.992214861717224Q1.6716249986588956,5.9512688617172245,1.7064469986588955,5.916446861717224Q1.7412689986588954,5.881624861717224,1.7822149986588955,5.854264861717224Q1.8231609986588955,5.826905861717224,1.8686579986588954,5.808059861717224Q1.9141549986588955,5.789214861717224,1.9624548986588954,5.779606861717224Q2.0107542986588953,5.769999861717224,2.0599999986588955,5.769999861717224L13.939999998658896,5.769999861717224Q13.989199998658895,5.769999861717224,14.037499998658895,5.779606861717224Q14.085799998658896,5.789214861717224,14.131299998658896,5.808059861717224Q14.176799998658895,5.826905861717224,14.217799998658895,5.854264861717224Q14.258699998658896,5.881624861717224,14.293599998658895,5.916446861717224Q14.328399998658895,5.9512688617172245,14.355699998658896,5.992214861717224Q14.383099998658896,6.033160861717224,14.401899998658896,6.078657861717224Q14.420799998658895,6.124154861717225,14.430399998658896,6.1724547617172245Q14.439999998658896,6.220754161717224,14.439999998658896,6.269999861717224Q14.439999998658896,6.319245561717224,14.430399998658896,6.367544961717224Q14.420799998658895,6.415844861717224,14.401899998658896,6.461341861717224Q14.383099998658896,6.506838861717224,14.355699998658896,6.547784861717224Q14.328399998658895,6.588730861717224,14.293599998658895,6.623552861717224Q14.258699998658896,6.658374861717224,14.217799998658895,6.685734861717224Q14.176799998658895,6.713093861717224,14.131299998658896,6.731939861717224Q14.085799998658896,6.750784861717224,14.037499998658895,6.760392861717224Q13.989199998658895,6.769999861717224,13.939999998658896,6.769999861717224ZM14.439999998658896,6.269999861717224Q14.439999998658896,6.319245561717224,14.430399998658896,6.367544961717224Q14.420799998658895,6.415844861717224,14.401899998658896,6.461341861717224Q14.383099998658896,6.506838861717224,14.355699998658896,6.547784861717224Q14.328399998658895,6.588730861717224,14.293599998658895,6.623552861717224Q14.258699998658896,6.658374861717224,14.217799998658895,6.685734861717224Q14.176799998658895,6.713093861717224,14.131299998658896,6.731939861717224Q14.085799998658896,6.750784861717224,14.037499998658895,6.760392861717224Q13.989199998658895,6.769999861717224,13.939999998658896,6.769999861717224Q13.890799998658895,6.769999861717224,13.842499998658896,6.760392861717224Q13.794199998658895,6.750784861717224,13.748699998658896,6.731939861717224Q13.703199998658896,6.713093861717224,13.662199998658895,6.685734861717224Q13.621299998658895,6.658374861717224,13.586399998658896,6.623552861717224Q13.551599998658896,6.588730861717224,13.524299998658895,6.547784861717224Q13.496899998658895,6.506838861717224,13.478099998658896,6.461341861717224Q13.459199998658896,6.415844861717224,13.449599998658895,6.367544961717224Q13.439999998658896,6.319245561717224,13.439999998658896,6.269999861717224Q13.439999998658896,6.220754161717224,13.449599998658895,6.1724547617172245Q13.459199998658896,6.124154861717225,13.478099998658896,6.078657861717224Q13.496899998658895,6.033160861717224,13.524299998658895,5.992214861717224Q13.551599998658896,5.9512688617172245,13.586399998658896,5.916446861717224Q13.621299998658895,5.881624861717224,13.662199998658895,5.854264861717224Q13.703199998658896,5.826905861717224,13.748699998658896,5.808059861717224Q13.794199998658895,5.789214861717224,13.842499998658896,5.779606861717224Q13.890799998658895,5.769999861717224,13.939999998658896,5.769999861717224Q13.989199998658895,5.769999861717224,14.037499998658895,5.779606861717224Q14.085799998658896,5.789214861717224,14.131299998658896,5.808059861717224Q14.176799998658895,5.826905861717224,14.217799998658895,5.854264861717224Q14.258699998658896,5.881624861717224,14.293599998658895,5.916446861717224Q14.328399998658895,5.9512688617172245,14.355699998658896,5.992214861717224Q14.383099998658896,6.033160861717224,14.401899998658896,6.078657861717224Q14.420799998658895,6.124154861717225,14.430399998658896,6.1724547617172245Q14.439999998658896,6.220754161717224,14.439999998658896,6.269999861717224ZM2.5599999986588955,6.269999861717224Q2.5599999986588955,6.319245561717224,2.5503929986588956,6.367544961717224Q2.5407849986588955,6.415844861717224,2.5219399986588957,6.461341861717224Q2.5030939986588954,6.506838861717224,2.4757349986588957,6.547784861717224Q2.4483749986588954,6.588730861717224,2.4135529986588953,6.623552861717224Q2.3787309986588956,6.658374861717224,2.3377849986588957,6.685734861717224Q2.2968389986588953,6.713093861717224,2.2513419986588956,6.731939861717224Q2.2058449986588955,6.750784861717224,2.1575450986588955,6.760392861717224Q2.1092456986588957,6.769999861717224,2.0599999986588955,6.769999861717224Q2.0107542986588953,6.769999861717224,1.9624548986588954,6.760392861717224Q1.9141549986588955,6.750784861717224,1.8686579986588954,6.731939861717224Q1.8231609986588955,6.713093861717224,1.7822149986588955,6.685734861717224Q1.7412689986588954,6.658374861717224,1.7064469986588955,6.623552861717224Q1.6716249986588956,6.588730861717224,1.6442649986588955,6.547784861717224Q1.6169059986588956,6.506838861717224,1.5980599986588955,6.461341861717224Q1.5792149986588955,6.415844861717224,1.5696069986588954,6.367544961717224Q1.5599999986588955,6.319245561717224,1.5599999986588955,6.269999861717224Q1.5599999986588955,6.220754161717224,1.5696069986588954,6.1724547617172245Q1.5792149986588955,6.124154861717225,1.5980599986588955,6.078657861717224Q1.6169059986588956,6.033160861717224,1.6442649986588955,5.992214861717224Q1.6716249986588956,5.9512688617172245,1.7064469986588955,5.916446861717224Q1.7412689986588954,5.881624861717224,1.7822149986588955,5.854264861717224Q1.8231609986588955,5.826905861717224,1.8686579986588954,5.808059861717224Q1.9141549986588955,5.789214861717224,1.9624548986588954,5.779606861717224Q2.0107542986588953,5.769999861717224,2.0599999986588955,5.769999861717224Q2.1092456986588957,5.769999861717224,2.1575450986588955,5.779606861717224Q2.2058449986588955,5.789214861717224,2.2513419986588956,5.808059861717224Q2.2968389986588953,5.826905861717224,2.3377849986588957,5.854264861717224Q2.3787309986588956,5.881624861717224,2.4135529986588953,5.916446861717224Q2.4483749986588954,5.9512688617172245,2.4757349986588957,5.992214861717224Q2.5030939986588954,6.033160861717224,2.5219399986588957,6.078657861717224Q2.5407849986588955,6.124154861717225,2.5503929986588956,6.1724547617172245Q2.5599999986588955,6.220754161717224,2.5599999986588955,6.269999861717224Z" fill="#1F2937" fill-opacity="1"/></g><g style="mix-blend-mode:passthrough"><path d="M11.273333663940429,9.376666903495789L10.65333366394043,9.376666903495789Q10.60408796394043,9.376666903495789,10.55578856394043,9.367059903495788Q10.50748866394043,9.35745190349579,10.46199166394043,9.338606903495789Q10.41649466394043,9.319760903495789,10.37554866394043,9.292401903495788Q10.33460266394043,9.265041903495788,10.29978066394043,9.230219903495788Q10.26495866394043,9.195397903495788,10.23759866394043,9.154451903495788Q10.21023966394043,9.113505903495788,10.19139366394043,9.06800890349579Q10.172548663940429,9.022511903495788,10.16294066394043,8.974212003495788Q10.15333366394043,8.925912603495789,10.15333366394043,8.876666903495789Q10.15333366394043,8.827421203495788,10.16294066394043,8.779121803495789Q10.172548663940429,8.730821903495789,10.19139366394043,8.685324903495788Q10.21023966394043,8.639827903495789,10.23759866394043,8.598881903495789Q10.26495866394043,8.557935903495789,10.29978066394043,8.523113903495789Q10.33460266394043,8.488291903495789,10.37554866394043,8.460931903495789Q10.41649466394043,8.433572903495788,10.46199166394043,8.414726903495788Q10.50748866394043,8.395881903495788,10.55578856394043,8.38627390349579Q10.60408796394043,8.376666903495789,10.65333366394043,8.376666903495789L11.273333663940429,8.376666903495789Q11.322579663940429,8.376666903495789,11.37087866394043,8.38627390349579Q11.41917866394043,8.395881903495788,11.46467566394043,8.414726903495788Q11.51017266394043,8.433572903495788,11.55111866394043,8.460931903495789Q11.59206466394043,8.488291903495789,11.62688666394043,8.523113903495789Q11.66171366394043,8.557935903495789,11.68906366394043,8.598881903495789Q11.71642366394043,8.639827903495789,11.73527366394043,8.685324903495788Q11.75412366394043,8.730821903495789,11.76372366394043,8.779121803495789Q11.77333366394043,8.827421203495788,11.77333366394043,8.876666903495789Q11.77333366394043,8.925912603495789,11.76372366394043,8.974212003495788Q11.75412366394043,9.022511903495788,11.73527366394043,9.06800890349579Q11.71642366394043,9.113505903495788,11.68906366394043,9.154451903495788Q11.66171366394043,9.195397903495788,11.62688666394043,9.230219903495788Q11.59206466394043,9.265041903495788,11.55111866394043,9.292401903495788Q11.51017266394043,9.319760903495789,11.46467566394043,9.338606903495789Q11.41917866394043,9.35745190349579,11.37087866394043,9.367059903495788Q11.322579663940429,9.376666903495789,11.273333663940429,9.376666903495789ZM11.77333366394043,8.876666903495789Q11.77333366394043,8.925912603495789,11.76372366394043,8.974212003495788Q11.75412366394043,9.022511903495788,11.73527366394043,9.06800890349579Q11.71642366394043,9.113505903495788,11.68906366394043,9.154451903495788Q11.66171366394043,9.195397903495788,11.62688666394043,9.230219903495788Q11.59206466394043,9.265041903495788,11.55111866394043,9.292401903495788Q11.51017266394043,9.319760903495789,11.46467566394043,9.338606903495789Q11.41917866394043,9.35745190349579,11.37087866394043,9.367059903495788Q11.322579663940429,9.376666903495789,11.273333663940429,9.376666903495789Q11.22408766394043,9.376666903495789,11.17578866394043,9.367059903495788Q11.12748866394043,9.35745190349579,11.08199166394043,9.338606903495789Q11.036494663940429,9.319760903495789,10.99554866394043,9.292401903495788Q10.95460266394043,9.265041903495788,10.91978066394043,9.230219903495788Q10.884958663940429,9.195397903495788,10.85759866394043,9.154451903495788Q10.83023966394043,9.113505903495788,10.81139366394043,9.06800890349579Q10.79254866394043,9.022511903495788,10.78294066394043,8.974212003495788Q10.773333663940429,8.925912603495789,10.773333663940429,8.876666903495789Q10.773333663940429,8.827421203495788,10.78294066394043,8.779121803495789Q10.79254866394043,8.730821903495789,10.81139366394043,8.685324903495788Q10.83023966394043,8.639827903495789,10.85759866394043,8.598881903495789Q10.884958663940429,8.557935903495789,10.91978066394043,8.523113903495789Q10.95460266394043,8.488291903495789,10.99554866394043,8.460931903495789Q11.036494663940429,8.433572903495788,11.08199166394043,8.414726903495788Q11.12748866394043,8.395881903495788,11.17578866394043,8.38627390349579Q11.22408766394043,8.376666903495789,11.273333663940429,8.376666903495789Q11.322579663940429,8.376666903495789,11.37087866394043,8.38627390349579Q11.41917866394043,8.395881903495788,11.46467566394043,8.414726903495788Q11.51017266394043,8.433572903495788,11.55111866394043,8.460931903495789Q11.59206466394043,8.488291903495789,11.62688666394043,8.523113903495789Q11.66171366394043,8.557935903495789,11.68906366394043,8.598881903495789Q11.71642366394043,8.639827903495789,11.73527366394043,8.685324903495788Q11.75412366394043,8.730821903495789,11.76372366394043,8.779121803495789Q11.77333366394043,8.827421203495788,11.77333366394043,8.876666903495789ZM11.15333366394043,8.876666903495789Q11.15333366394043,8.925912603495789,11.143726663940429,8.974212003495788Q11.13411866394043,9.022511903495788,11.11527366394043,9.06800890349579Q11.09642766394043,9.113505903495788,11.06906866394043,9.154451903495788Q11.04170866394043,9.195397903495788,11.00688666394043,9.230219903495788Q10.97206466394043,9.265041903495788,10.93111866394043,9.292401903495788Q10.89017266394043,9.319760903495789,10.84467566394043,9.338606903495789Q10.79917866394043,9.35745190349579,10.75087876394043,9.367059903495788Q10.70257936394043,9.376666903495789,10.65333366394043,9.376666903495789Q10.60408796394043,9.376666903495789,10.55578856394043,9.367059903495788Q10.50748866394043,9.35745190349579,10.46199166394043,9.338606903495789Q10.41649466394043,9.319760903495789,10.37554866394043,9.292401903495788Q10.33460266394043,9.265041903495788,10.29978066394043,9.230219903495788Q10.26495866394043,9.195397903495788,10.23759866394043,9.154451903495788Q10.21023966394043,9.113505903495788,10.19139366394043,9.06800890349579Q10.172548663940429,9.022511903495788,10.16294066394043,8.974212003495788Q10.15333366394043,8.925912603495789,10.15333366394043,8.876666903495789Q10.15333366394043,8.827421203495788,10.16294066394043,8.779121803495789Q10.172548663940429,8.730821903495789,10.19139366394043,8.685324903495788Q10.21023966394043,8.639827903495789,10.23759866394043,8.598881903495789Q10.26495866394043,8.557935903495789,10.29978066394043,8.523113903495789Q10.33460266394043,8.488291903495789,10.37554866394043,8.460931903495789Q10.41649466394043,8.433572903495788,10.46199166394043,8.414726903495788Q10.50748866394043,8.395881903495788,10.55578856394043,8.38627390349579Q10.60408796394043,8.376666903495789,10.65333366394043,8.376666903495789Q10.70257936394043,8.376666903495789,10.75087876394043,8.38627390349579Q10.79917866394043,8.395881903495788,10.84467566394043,8.414726903495788Q10.89017266394043,8.433572903495788,10.93111866394043,8.460931903495789Q10.97206466394043,8.488291903495789,11.00688666394043,8.523113903495789Q11.04170866394043,8.557935903495789,11.06906866394043,8.598881903495789Q11.09642766394043,8.639827903495789,11.11527366394043,8.685324903495788Q11.13411866394043,8.730821903495789,11.143726663940429,8.779121803495789Q11.15333366394043,8.827421203495788,11.15333366394043,8.876666903495789Z" fill="#1F2937" fill-opacity="1"/></g><g style="mix-blend-mode:passthrough"><path d="M8.319999809265136,9.376666903495789L7.699999809265137,9.376666903495789Q7.6507541092651365,9.376666903495789,7.602454709265137,9.367059903495788Q7.554154809265137,9.35745190349579,7.508657809265137,9.338606903495789Q7.463160809265137,9.319760903495789,7.422214809265137,9.292401903495788Q7.381268809265137,9.265041903495788,7.346446809265137,9.230219903495788Q7.311624809265137,9.195397903495788,7.284264809265137,9.154451903495788Q7.256905809265136,9.113505903495788,7.2380598092651365,9.06800890349579Q7.219214809265137,9.022511903495788,7.209606809265137,8.974212003495788Q7.199999809265137,8.925912603495789,7.199999809265137,8.876666903495789Q7.199999809265137,8.827421203495788,7.209606809265137,8.779121803495789Q7.219214809265137,8.730821903495789,7.2380598092651365,8.685324903495788Q7.256905809265136,8.639827903495789,7.284264809265137,8.598881903495789Q7.311624809265137,8.557935903495789,7.346446809265137,8.523113903495789Q7.381268809265137,8.488291903495789,7.422214809265137,8.460931903495789Q7.463160809265137,8.433572903495788,7.508657809265137,8.414726903495788Q7.554154809265137,8.395881903495788,7.602454709265137,8.38627390349579Q7.6507541092651365,8.376666903495789,7.699999809265137,8.376666903495789L8.319999809265136,8.376666903495789Q8.369245809265136,8.376666903495789,8.417544809265136,8.38627390349579Q8.465844809265137,8.395881903495788,8.511341809265137,8.414726903495788Q8.556838809265138,8.433572903495788,8.597784809265137,8.460931903495789Q8.638730809265137,8.488291903495789,8.673552809265137,8.523113903495789Q8.708379809265137,8.557935903495789,8.735729809265138,8.598881903495789Q8.763089809265137,8.639827903495789,8.781939809265136,8.685324903495788Q8.800789809265137,8.730821903495789,8.810389809265137,8.779121803495789Q8.819999809265138,8.827421203495788,8.819999809265138,8.876666903495789Q8.819999809265138,8.925912603495789,8.810389809265137,8.974212003495788Q8.800789809265137,9.022511903495788,8.781939809265136,9.06800890349579Q8.763089809265137,9.113505903495788,8.735729809265138,9.154451903495788Q8.708379809265137,9.195397903495788,8.673552809265137,9.230219903495788Q8.638730809265137,9.265041903495788,8.597784809265137,9.292401903495788Q8.556838809265138,9.319760903495789,8.511341809265137,9.338606903495789Q8.465844809265137,9.35745190349579,8.417544809265136,9.367059903495788Q8.369245809265136,9.376666903495789,8.319999809265136,9.376666903495789ZM8.819999809265138,8.876666903495789Q8.819999809265138,8.925912603495789,8.810389809265137,8.974212003495788Q8.800789809265137,9.022511903495788,8.781939809265136,9.06800890349579Q8.763089809265137,9.113505903495788,8.735729809265138,9.154451903495788Q8.708379809265137,9.195397903495788,8.673552809265137,9.230219903495788Q8.638730809265137,9.265041903495788,8.597784809265137,9.292401903495788Q8.556838809265138,9.319760903495789,8.511341809265137,9.338606903495789Q8.465844809265137,9.35745190349579,8.417544809265136,9.367059903495788Q8.369245809265136,9.376666903495789,8.319999809265136,9.376666903495789Q8.270753809265138,9.376666903495789,8.222454809265137,9.367059903495788Q8.174154809265136,9.35745190349579,8.128657809265137,9.338606903495789Q8.083160809265136,9.319760903495789,8.042214809265136,9.292401903495788Q8.001268809265136,9.265041903495788,7.966446809265137,9.230219903495788Q7.931624809265137,9.195397903495788,7.904264809265137,9.154451903495788Q7.8769058092651365,9.113505903495788,7.858059809265137,9.06800890349579Q7.839214809265137,9.022511903495788,7.829606809265137,8.974212003495788Q7.819999809265137,8.925912603495789,7.819999809265137,8.876666903495789Q7.819999809265137,8.827421203495788,7.829606809265137,8.779121803495789Q7.839214809265137,8.730821903495789,7.858059809265137,8.685324903495788Q7.8769058092651365,8.639827903495789,7.904264809265137,8.598881903495789Q7.931624809265137,8.557935903495789,7.966446809265137,8.523113903495789Q8.001268809265136,8.488291903495789,8.042214809265136,8.460931903495789Q8.083160809265136,8.433572903495788,8.128657809265137,8.414726903495788Q8.174154809265136,8.395881903495788,8.222454809265137,8.38627390349579Q8.270753809265138,8.376666903495789,8.319999809265136,8.376666903495789Q8.369245809265136,8.376666903495789,8.417544809265136,8.38627390349579Q8.465844809265137,8.395881903495788,8.511341809265137,8.414726903495788Q8.556838809265138,8.433572903495788,8.597784809265137,8.460931903495789Q8.638730809265137,8.488291903495789,8.673552809265137,8.523113903495789Q8.708379809265137,8.557935903495789,8.735729809265138,8.598881903495789Q8.763089809265137,8.639827903495789,8.781939809265136,8.685324903495788Q8.800789809265137,8.730821903495789,8.810389809265137,8.779121803495789Q8.819999809265138,8.827421203495788,8.819999809265138,8.876666903495789ZM8.199999809265137,8.876666903495789Q8.199999809265137,8.925912603495789,8.190392809265136,8.974212003495788Q8.180784809265138,9.022511903495788,8.161939809265137,9.06800890349579Q8.143093809265137,9.113505903495788,8.115734809265136,9.154451903495788Q8.088374809265137,9.195397903495788,8.053552809265137,9.230219903495788Q8.018730809265136,9.265041903495788,7.9777848092651364,9.292401903495788Q7.9368388092651365,9.319760903495789,7.891341809265136,9.338606903495789Q7.845844809265136,9.35745190349579,7.797544909265136,9.367059903495788Q7.749245509265137,9.376666903495789,7.699999809265137,9.376666903495789Q7.6507541092651365,9.376666903495789,7.602454709265137,9.367059903495788Q7.554154809265137,9.35745190349579,7.508657809265137,9.338606903495789Q7.463160809265137,9.319760903495789,7.422214809265137,9.292401903495788Q7.381268809265137,9.265041903495788,7.346446809265137,9.230219903495788Q7.311624809265137,9.195397903495788,7.284264809265137,9.154451903495788Q7.256905809265136,9.113505903495788,7.2380598092651365,9.06800890349579Q7.219214809265137,9.022511903495788,7.209606809265137,8.974212003495788Q7.199999809265137,8.925912603495789,7.199999809265137,8.876666903495789Q7.199999809265137,8.827421203495788,7.209606809265137,8.779121803495789Q7.219214809265137,8.730821903495789,7.2380598092651365,8.685324903495788Q7.256905809265136,8.639827903495789,7.284264809265137,8.598881903495789Q7.311624809265137,8.557935903495789,7.346446809265137,8.523113903495789Q7.381268809265137,8.488291903495789,7.422214809265137,8.460931903495789Q7.463160809265137,8.433572903495788,7.508657809265137,8.414726903495788Q7.554154809265137,8.395881903495788,7.602454709265137,8.38627390349579Q7.6507541092651365,8.376666903495789,7.699999809265137,8.376666903495789Q7.749245509265137,8.376666903495789,7.797544909265136,8.38627390349579Q7.845844809265136,8.395881903495788,7.891341809265136,8.414726903495788Q7.9368388092651365,8.433572903495788,7.9777848092651364,8.460931903495789Q8.018730809265136,8.488291903495789,8.053552809265137,8.523113903495789Q8.088374809265137,8.557935903495789,8.115734809265136,8.598881903495789Q8.143093809265137,8.639827903495789,8.161939809265137,8.685324903495788Q8.180784809265138,8.730821903495789,8.190392809265136,8.779121803495789Q8.199999809265137,8.827421203495788,8.199999809265137,8.876666903495789Z" fill="#1F2937" fill-opacity="1"/></g><g style="mix-blend-mode:passthrough"><path d="M5.353333349227905,9.376666903495789L4.733333349227905,9.376666903495789Q4.684087649227905,9.376666903495789,4.635788249227906,9.367059903495788Q4.587488349227906,9.35745190349579,4.541991349227906,9.338606903495789Q4.4964943492279055,9.319760903495789,4.4555483492279055,9.292401903495788Q4.414602349227906,9.265041903495788,4.3797803492279055,9.230219903495788Q4.344958349227905,9.195397903495788,4.3175983492279055,9.154451903495788Q4.290239349227905,9.113505903495788,4.271393349227905,9.06800890349579Q4.252548349227905,9.022511903495788,4.242940349227905,8.974212003495788Q4.233333349227905,8.925912603495789,4.233333349227905,8.876666903495789Q4.233333349227905,8.827421203495788,4.242940349227905,8.779121803495789Q4.252548349227905,8.730821903495789,4.271393349227905,8.685324903495788Q4.290239349227905,8.639827903495789,4.3175983492279055,8.598881903495789Q4.344958349227905,8.557935903495789,4.3797803492279055,8.523113903495789Q4.414602349227906,8.488291903495789,4.4555483492279055,8.460931903495789Q4.4964943492279055,8.433572903495788,4.541991349227906,8.414726903495788Q4.587488349227906,8.395881903495788,4.635788249227906,8.38627390349579Q4.684087649227905,8.376666903495789,4.733333349227905,8.376666903495789L5.353333349227905,8.376666903495789Q5.4025793492279055,8.376666903495789,5.450878349227906,8.38627390349579Q5.499178349227905,8.395881903495788,5.544675349227905,8.414726903495788Q5.590172349227905,8.433572903495788,5.631118349227905,8.460931903495789Q5.672064349227905,8.488291903495789,5.706886349227905,8.523113903495789Q5.741713349227905,8.557935903495789,5.769063349227905,8.598881903495789Q5.796423349227905,8.639827903495789,5.815273349227905,8.685324903495788Q5.834123349227905,8.730821903495789,5.843723349227905,8.779121803495789Q5.853333349227905,8.827421203495788,5.853333349227905,8.876666903495789Q5.853333349227905,8.925912603495789,5.843723349227905,8.974212003495788Q5.834123349227905,9.022511903495788,5.815273349227905,9.06800890349579Q5.796423349227905,9.113505903495788,5.769063349227905,9.154451903495788Q5.741713349227905,9.195397903495788,5.706886349227905,9.230219903495788Q5.672064349227905,9.265041903495788,5.631118349227905,9.292401903495788Q5.590172349227905,9.319760903495789,5.544675349227905,9.338606903495789Q5.499178349227905,9.35745190349579,5.450878349227906,9.367059903495788Q5.4025793492279055,9.376666903495789,5.353333349227905,9.376666903495789ZM5.853333349227905,8.876666903495789Q5.853333349227905,8.925912603495789,5.843723349227905,8.974212003495788Q5.834123349227905,9.022511903495788,5.815273349227905,9.06800890349579Q5.796423349227905,9.113505903495788,5.769063349227905,9.154451903495788Q5.741713349227905,9.195397903495788,5.706886349227905,9.230219903495788Q5.672064349227905,9.265041903495788,5.631118349227905,9.292401903495788Q5.590172349227905,9.319760903495789,5.544675349227905,9.338606903495789Q5.499178349227905,9.35745190349579,5.450878349227906,9.367059903495788Q5.4025793492279055,9.376666903495789,5.353333349227905,9.376666903495789Q5.304087349227905,9.376666903495789,5.255788349227905,9.367059903495788Q5.207488349227905,9.35745190349579,5.161991349227906,9.338606903495789Q5.116494349227906,9.319760903495789,5.075548349227906,9.292401903495788Q5.034602349227905,9.265041903495788,4.999780349227906,9.230219903495788Q4.9649583492279055,9.195397903495788,4.937598349227906,9.154451903495788Q4.910239349227905,9.113505903495788,4.891393349227905,9.06800890349579Q4.872548349227905,9.022511903495788,4.862940349227905,8.974212003495788Q4.853333349227905,8.925912603495789,4.853333349227905,8.876666903495789Q4.853333349227905,8.827421203495788,4.862940349227905,8.779121803495789Q4.872548349227905,8.730821903495789,4.891393349227905,8.685324903495788Q4.910239349227905,8.639827903495789,4.937598349227906,8.598881903495789Q4.9649583492279055,8.557935903495789,4.999780349227906,8.523113903495789Q5.034602349227905,8.488291903495789,5.075548349227906,8.460931903495789Q5.116494349227906,8.433572903495788,5.161991349227906,8.414726903495788Q5.207488349227905,8.395881903495788,5.255788349227905,8.38627390349579Q5.304087349227905,8.376666903495789,5.353333349227905,8.376666903495789Q5.4025793492279055,8.376666903495789,5.450878349227906,8.38627390349579Q5.499178349227905,8.395881903495788,5.544675349227905,8.414726903495788Q5.590172349227905,8.433572903495788,5.631118349227905,8.460931903495789Q5.672064349227905,8.488291903495789,5.706886349227905,8.523113903495789Q5.741713349227905,8.557935903495789,5.769063349227905,8.598881903495789Q5.796423349227905,8.639827903495789,5.815273349227905,8.685324903495788Q5.834123349227905,8.730821903495789,5.843723349227905,8.779121803495789Q5.853333349227905,8.827421203495788,5.853333349227905,8.876666903495789ZM5.233333349227905,8.876666903495789Q5.233333349227905,8.925912603495789,5.223726349227905,8.974212003495788Q5.214118349227905,9.022511903495788,5.1952733492279055,9.06800890349579Q5.176427349227906,9.113505903495788,5.149068349227905,9.154451903495788Q5.121708349227905,9.195397903495788,5.086886349227905,9.230219903495788Q5.052064349227905,9.265041903495788,5.011118349227905,9.292401903495788Q4.970172349227905,9.319760903495789,4.924675349227905,9.338606903495789Q4.879178349227905,9.35745190349579,4.830878449227905,9.367059903495788Q4.782579049227905,9.376666903495789,4.733333349227905,9.376666903495789Q4.684087649227905,9.376666903495789,4.635788249227906,9.367059903495788Q4.587488349227906,9.35745190349579,4.541991349227906,9.338606903495789Q4.4964943492279055,9.319760903495789,4.4555483492279055,9.292401903495788Q4.414602349227906,9.265041903495788,4.3797803492279055,9.230219903495788Q4.344958349227905,9.195397903495788,4.3175983492279055,9.154451903495788Q4.290239349227905,9.113505903495788,4.271393349227905,9.06800890349579Q4.252548349227905,9.022511903495788,4.242940349227905,8.974212003495788Q4.233333349227905,8.925912603495789,4.233333349227905,8.876666903495789Q4.233333349227905,8.827421203495788,4.242940349227905,8.779121803495789Q4.252548349227905,8.730821903495789,4.271393349227905,8.685324903495788Q4.290239349227905,8.639827903495789,4.3175983492279055,8.598881903495789Q4.344958349227905,8.557935903495789,4.3797803492279055,8.523113903495789Q4.414602349227906,8.488291903495789,4.4555483492279055,8.460931903495789Q4.4964943492279055,8.433572903495788,4.541991349227906,8.414726903495788Q4.587488349227906,8.395881903495788,4.635788249227906,8.38627390349579Q4.684087649227905,8.376666903495789,4.733333349227905,8.376666903495789Q4.782579049227905,8.376666903495789,4.830878449227905,8.38627390349579Q4.879178349227905,8.395881903495788,4.924675349227905,8.414726903495788Q4.970172349227905,8.433572903495788,5.011118349227905,8.460931903495789Q5.052064349227905,8.488291903495789,5.086886349227905,8.523113903495789Q5.121708349227905,8.557935903495789,5.149068349227905,8.598881903495789Q5.176427349227906,8.639827903495789,5.1952733492279055,8.685324903495788Q5.214118349227905,8.730821903495789,5.223726349227905,8.779121803495789Q5.233333349227905,8.827421203495788,5.233333349227905,8.876666903495789Z" fill="#1F2937" fill-opacity="1"/></g><g style="mix-blend-mode:passthrough"><path d="M11.273333663940429,11.963333487510681L10.65333366394043,11.963333487510681Q10.60408796394043,11.963333487510681,10.55578856394043,11.95372648751068Q10.50748866394043,11.944118487510682,10.46199166394043,11.925273487510681Q10.41649466394043,11.906427487510681,10.37554866394043,11.879068487510681Q10.33460266394043,11.851708487510681,10.29978066394043,11.816886487510681Q10.26495866394043,11.78206448751068,10.23759866394043,11.74111848751068Q10.21023966394043,11.700172487510681,10.19139366394043,11.654675487510682Q10.172548663940429,11.60917848751068,10.16294066394043,11.56087858751068Q10.15333366394043,11.512579187510681,10.15333366394043,11.463333487510681Q10.15333366394043,11.414087787510681,10.16294066394043,11.365788387510682Q10.172548663940429,11.317488487510682,10.19139366394043,11.27199148751068Q10.21023966394043,11.226494487510681,10.23759866394043,11.185548487510681Q10.26495866394043,11.144602487510681,10.29978066394043,11.109780487510681Q10.33460266394043,11.074958487510681,10.37554866394043,11.047598487510681Q10.41649466394043,11.02023948751068,10.46199166394043,11.001393487510681Q10.50748866394043,10.98254848751068,10.55578856394043,10.972940487510682Q10.60408796394043,10.963333487510681,10.65333366394043,10.963333487510681L11.273333663940429,10.963333487510681Q11.322579663940429,10.963333487510681,11.37087866394043,10.972940487510682Q11.41917866394043,10.98254848751068,11.46467566394043,11.001393487510681Q11.51017266394043,11.02023948751068,11.55111866394043,11.047598487510681Q11.59206466394043,11.074958487510681,11.62688666394043,11.109780487510681Q11.66171366394043,11.144602487510681,11.68906366394043,11.185548487510681Q11.71642366394043,11.226494487510681,11.73527366394043,11.27199148751068Q11.75412366394043,11.317488487510682,11.76372366394043,11.365788387510682Q11.77333366394043,11.414087787510681,11.77333366394043,11.463333487510681Q11.77333366394043,11.512579187510681,11.76372366394043,11.56087858751068Q11.75412366394043,11.60917848751068,11.73527366394043,11.654675487510682Q11.71642366394043,11.700172487510681,11.68906366394043,11.74111848751068Q11.66171366394043,11.78206448751068,11.62688666394043,11.816886487510681Q11.59206466394043,11.851708487510681,11.55111866394043,11.879068487510681Q11.51017266394043,11.906427487510681,11.46467566394043,11.925273487510681Q11.41917866394043,11.944118487510682,11.37087866394043,11.95372648751068Q11.322579663940429,11.963333487510681,11.273333663940429,11.963333487510681ZM11.77333366394043,11.463333487510681Q11.77333366394043,11.512579187510681,11.76372366394043,11.56087858751068Q11.75412366394043,11.60917848751068,11.73527366394043,11.654675487510682Q11.71642366394043,11.700172487510681,11.68906366394043,11.74111848751068Q11.66171366394043,11.78206448751068,11.62688666394043,11.816886487510681Q11.59206466394043,11.851708487510681,11.55111866394043,11.879068487510681Q11.51017266394043,11.906427487510681,11.46467566394043,11.925273487510681Q11.41917866394043,11.944118487510682,11.37087866394043,11.95372648751068Q11.322579663940429,11.963333487510681,11.273333663940429,11.963333487510681Q11.22408766394043,11.963333487510681,11.17578866394043,11.95372648751068Q11.12748866394043,11.944118487510682,11.08199166394043,11.925273487510681Q11.036494663940429,11.906427487510681,10.99554866394043,11.879068487510681Q10.95460266394043,11.851708487510681,10.91978066394043,11.816886487510681Q10.884958663940429,11.78206448751068,10.85759866394043,11.74111848751068Q10.83023966394043,11.700172487510681,10.81139366394043,11.654675487510682Q10.79254866394043,11.60917848751068,10.78294066394043,11.56087858751068Q10.773333663940429,11.512579187510681,10.773333663940429,11.463333487510681Q10.773333663940429,11.414087787510681,10.78294066394043,11.365788387510682Q10.79254866394043,11.317488487510682,10.81139366394043,11.27199148751068Q10.83023966394043,11.226494487510681,10.85759866394043,11.185548487510681Q10.884958663940429,11.144602487510681,10.91978066394043,11.109780487510681Q10.95460266394043,11.074958487510681,10.99554866394043,11.047598487510681Q11.036494663940429,11.02023948751068,11.08199166394043,11.001393487510681Q11.12748866394043,10.98254848751068,11.17578866394043,10.972940487510682Q11.22408766394043,10.963333487510681,11.273333663940429,10.963333487510681Q11.322579663940429,10.963333487510681,11.37087866394043,10.972940487510682Q11.41917866394043,10.98254848751068,11.46467566394043,11.001393487510681Q11.51017266394043,11.02023948751068,11.55111866394043,11.047598487510681Q11.59206466394043,11.074958487510681,11.62688666394043,11.109780487510681Q11.66171366394043,11.144602487510681,11.68906366394043,11.185548487510681Q11.71642366394043,11.226494487510681,11.73527366394043,11.27199148751068Q11.75412366394043,11.317488487510682,11.76372366394043,11.365788387510682Q11.77333366394043,11.414087787510681,11.77333366394043,11.463333487510681ZM11.15333366394043,11.463333487510681Q11.15333366394043,11.512579187510681,11.143726663940429,11.56087858751068Q11.13411866394043,11.60917848751068,11.11527366394043,11.654675487510682Q11.09642766394043,11.700172487510681,11.06906866394043,11.74111848751068Q11.04170866394043,11.78206448751068,11.00688666394043,11.816886487510681Q10.97206466394043,11.851708487510681,10.93111866394043,11.879068487510681Q10.89017266394043,11.906427487510681,10.84467566394043,11.925273487510681Q10.79917866394043,11.944118487510682,10.75087876394043,11.95372648751068Q10.70257936394043,11.963333487510681,10.65333366394043,11.963333487510681Q10.60408796394043,11.963333487510681,10.55578856394043,11.95372648751068Q10.50748866394043,11.944118487510682,10.46199166394043,11.925273487510681Q10.41649466394043,11.906427487510681,10.37554866394043,11.879068487510681Q10.33460266394043,11.851708487510681,10.29978066394043,11.816886487510681Q10.26495866394043,11.78206448751068,10.23759866394043,11.74111848751068Q10.21023966394043,11.700172487510681,10.19139366394043,11.654675487510682Q10.172548663940429,11.60917848751068,10.16294066394043,11.56087858751068Q10.15333366394043,11.512579187510681,10.15333366394043,11.463333487510681Q10.15333366394043,11.414087787510681,10.16294066394043,11.365788387510682Q10.172548663940429,11.317488487510682,10.19139366394043,11.27199148751068Q10.21023966394043,11.226494487510681,10.23759866394043,11.185548487510681Q10.26495866394043,11.144602487510681,10.29978066394043,11.109780487510681Q10.33460266394043,11.074958487510681,10.37554866394043,11.047598487510681Q10.41649466394043,11.02023948751068,10.46199166394043,11.001393487510681Q10.50748866394043,10.98254848751068,10.55578856394043,10.972940487510682Q10.60408796394043,10.963333487510681,10.65333366394043,10.963333487510681Q10.70257936394043,10.963333487510681,10.75087876394043,10.972940487510682Q10.79917866394043,10.98254848751068,10.84467566394043,11.001393487510681Q10.89017266394043,11.02023948751068,10.93111866394043,11.047598487510681Q10.97206466394043,11.074958487510681,11.00688666394043,11.109780487510681Q11.04170866394043,11.144602487510681,11.06906866394043,11.185548487510681Q11.09642766394043,11.226494487510681,11.11527366394043,11.27199148751068Q11.13411866394043,11.317488487510682,11.143726663940429,11.365788387510682Q11.15333366394043,11.414087787510681,11.15333366394043,11.463333487510681Z" fill="#1F2937" fill-opacity="1"/></g><g style="mix-blend-mode:passthrough"><path d="M8.319999809265136,11.963333487510681L7.699999809265137,11.963333487510681Q7.6507541092651365,11.963333487510681,7.602454709265137,11.95372648751068Q7.554154809265137,11.944118487510682,7.508657809265137,11.925273487510681Q7.463160809265137,11.906427487510681,7.422214809265137,11.879068487510681Q7.381268809265137,11.851708487510681,7.346446809265137,11.816886487510681Q7.311624809265137,11.78206448751068,7.284264809265137,11.74111848751068Q7.256905809265136,11.700172487510681,7.2380598092651365,11.654675487510682Q7.219214809265137,11.60917848751068,7.209606809265137,11.56087858751068Q7.199999809265137,11.512579187510681,7.199999809265137,11.463333487510681Q7.199999809265137,11.414087787510681,7.209606809265137,11.365788387510682Q7.219214809265137,11.317488487510682,7.2380598092651365,11.27199148751068Q7.256905809265136,11.226494487510681,7.284264809265137,11.185548487510681Q7.311624809265137,11.144602487510681,7.346446809265137,11.109780487510681Q7.381268809265137,11.074958487510681,7.422214809265137,11.047598487510681Q7.463160809265137,11.02023948751068,7.508657809265137,11.001393487510681Q7.554154809265137,10.98254848751068,7.602454709265137,10.972940487510682Q7.6507541092651365,10.963333487510681,7.699999809265137,10.963333487510681L8.319999809265136,10.963333487510681Q8.369245809265136,10.963333487510681,8.417544809265136,10.972940487510682Q8.465844809265137,10.98254848751068,8.511341809265137,11.001393487510681Q8.556838809265138,11.02023948751068,8.597784809265137,11.047598487510681Q8.638730809265137,11.074958487510681,8.673552809265137,11.109780487510681Q8.708379809265137,11.144602487510681,8.735729809265138,11.185548487510681Q8.763089809265137,11.226494487510681,8.781939809265136,11.27199148751068Q8.800789809265137,11.317488487510682,8.810389809265137,11.365788387510682Q8.819999809265138,11.414087787510681,8.819999809265138,11.463333487510681Q8.819999809265138,11.512579187510681,8.810389809265137,11.56087858751068Q8.800789809265137,11.60917848751068,8.781939809265136,11.654675487510682Q8.763089809265137,11.700172487510681,8.735729809265138,11.74111848751068Q8.708379809265137,11.78206448751068,8.673552809265137,11.816886487510681Q8.638730809265137,11.851708487510681,8.597784809265137,11.879068487510681Q8.556838809265138,11.906427487510681,8.511341809265137,11.925273487510681Q8.465844809265137,11.944118487510682,8.417544809265136,11.95372648751068Q8.369245809265136,11.963333487510681,8.319999809265136,11.963333487510681ZM8.819999809265138,11.463333487510681Q8.819999809265138,11.512579187510681,8.810389809265137,11.56087858751068Q8.800789809265137,11.60917848751068,8.781939809265136,11.654675487510682Q8.763089809265137,11.700172487510681,8.735729809265138,11.74111848751068Q8.708379809265137,11.78206448751068,8.673552809265137,11.816886487510681Q8.638730809265137,11.851708487510681,8.597784809265137,11.879068487510681Q8.556838809265138,11.906427487510681,8.511341809265137,11.925273487510681Q8.465844809265137,11.944118487510682,8.417544809265136,11.95372648751068Q8.369245809265136,11.963333487510681,8.319999809265136,11.963333487510681Q8.270753809265138,11.963333487510681,8.222454809265137,11.95372648751068Q8.174154809265136,11.944118487510682,8.128657809265137,11.925273487510681Q8.083160809265136,11.906427487510681,8.042214809265136,11.879068487510681Q8.001268809265136,11.851708487510681,7.966446809265137,11.816886487510681Q7.931624809265137,11.78206448751068,7.904264809265137,11.74111848751068Q7.8769058092651365,11.700172487510681,7.858059809265137,11.654675487510682Q7.839214809265137,11.60917848751068,7.829606809265137,11.56087858751068Q7.819999809265137,11.512579187510681,7.819999809265137,11.463333487510681Q7.819999809265137,11.414087787510681,7.829606809265137,11.365788387510682Q7.839214809265137,11.317488487510682,7.858059809265137,11.27199148751068Q7.8769058092651365,11.226494487510681,7.904264809265137,11.185548487510681Q7.931624809265137,11.144602487510681,7.966446809265137,11.109780487510681Q8.001268809265136,11.074958487510681,8.042214809265136,11.047598487510681Q8.083160809265136,11.02023948751068,8.128657809265137,11.001393487510681Q8.174154809265136,10.98254848751068,8.222454809265137,10.972940487510682Q8.270753809265138,10.963333487510681,8.319999809265136,10.963333487510681Q8.369245809265136,10.963333487510681,8.417544809265136,10.972940487510682Q8.465844809265137,10.98254848751068,8.511341809265137,11.001393487510681Q8.556838809265138,11.02023948751068,8.597784809265137,11.047598487510681Q8.638730809265137,11.074958487510681,8.673552809265137,11.109780487510681Q8.708379809265137,11.144602487510681,8.735729809265138,11.185548487510681Q8.763089809265137,11.226494487510681,8.781939809265136,11.27199148751068Q8.800789809265137,11.317488487510682,8.810389809265137,11.365788387510682Q8.819999809265138,11.414087787510681,8.819999809265138,11.463333487510681ZM8.199999809265137,11.463333487510681Q8.199999809265137,11.512579187510681,8.190392809265136,11.56087858751068Q8.180784809265138,11.60917848751068,8.161939809265137,11.654675487510682Q8.143093809265137,11.700172487510681,8.115734809265136,11.74111848751068Q8.088374809265137,11.78206448751068,8.053552809265137,11.816886487510681Q8.018730809265136,11.851708487510681,7.9777848092651364,11.879068487510681Q7.9368388092651365,11.906427487510681,7.891341809265136,11.925273487510681Q7.845844809265136,11.944118487510682,7.797544909265136,11.95372648751068Q7.749245509265137,11.963333487510681,7.699999809265137,11.963333487510681Q7.6507541092651365,11.963333487510681,7.602454709265137,11.95372648751068Q7.554154809265137,11.944118487510682,7.508657809265137,11.925273487510681Q7.463160809265137,11.906427487510681,7.422214809265137,11.879068487510681Q7.381268809265137,11.851708487510681,7.346446809265137,11.816886487510681Q7.311624809265137,11.78206448751068,7.284264809265137,11.74111848751068Q7.256905809265136,11.700172487510681,7.2380598092651365,11.654675487510682Q7.219214809265137,11.60917848751068,7.209606809265137,11.56087858751068Q7.199999809265137,11.512579187510681,7.199999809265137,11.463333487510681Q7.199999809265137,11.414087787510681,7.209606809265137,11.365788387510682Q7.219214809265137,11.317488487510682,7.2380598092651365,11.27199148751068Q7.256905809265136,11.226494487510681,7.284264809265137,11.185548487510681Q7.311624809265137,11.144602487510681,7.346446809265137,11.109780487510681Q7.381268809265137,11.074958487510681,7.422214809265137,11.047598487510681Q7.463160809265137,11.02023948751068,7.508657809265137,11.001393487510681Q7.554154809265137,10.98254848751068,7.602454709265137,10.972940487510682Q7.6507541092651365,10.963333487510681,7.699999809265137,10.963333487510681Q7.749245509265137,10.963333487510681,7.797544909265136,10.972940487510682Q7.845844809265136,10.98254848751068,7.891341809265136,11.001393487510681Q7.9368388092651365,11.02023948751068,7.9777848092651364,11.047598487510681Q8.018730809265136,11.074958487510681,8.053552809265137,11.109780487510681Q8.088374809265137,11.144602487510681,8.115734809265136,11.185548487510681Q8.143093809265137,11.226494487510681,8.161939809265137,11.27199148751068Q8.180784809265138,11.317488487510682,8.190392809265136,11.365788387510682Q8.199999809265137,11.414087787510681,8.199999809265137,11.463333487510681Z" fill="#1F2937" fill-opacity="1"/></g><g style="mix-blend-mode:passthrough"><path d="M5.353333349227905,11.963333487510681L4.733333349227905,11.963333487510681Q4.684087649227905,11.963333487510681,4.635788249227906,11.95372648751068Q4.587488349227906,11.944118487510682,4.541991349227906,11.925273487510681Q4.4964943492279055,11.906427487510681,4.4555483492279055,11.879068487510681Q4.414602349227906,11.851708487510681,4.3797803492279055,11.816886487510681Q4.344958349227905,11.78206448751068,4.3175983492279055,11.74111848751068Q4.290239349227905,11.700172487510681,4.271393349227905,11.654675487510682Q4.252548349227905,11.60917848751068,4.242940349227905,11.56087858751068Q4.233333349227905,11.512579187510681,4.233333349227905,11.463333487510681Q4.233333349227905,11.414087787510681,4.242940349227905,11.365788387510682Q4.252548349227905,11.317488487510682,4.271393349227905,11.27199148751068Q4.290239349227905,11.226494487510681,4.3175983492279055,11.185548487510681Q4.344958349227905,11.144602487510681,4.3797803492279055,11.109780487510681Q4.414602349227906,11.074958487510681,4.4555483492279055,11.047598487510681Q4.4964943492279055,11.02023948751068,4.541991349227906,11.001393487510681Q4.587488349227906,10.98254848751068,4.635788249227906,10.972940487510682Q4.684087649227905,10.963333487510681,4.733333349227905,10.963333487510681L5.353333349227905,10.963333487510681Q5.4025793492279055,10.963333487510681,5.450878349227906,10.972940487510682Q5.499178349227905,10.98254848751068,5.544675349227905,11.001393487510681Q5.590172349227905,11.02023948751068,5.631118349227905,11.047598487510681Q5.672064349227905,11.074958487510681,5.706886349227905,11.109780487510681Q5.741713349227905,11.144602487510681,5.769063349227905,11.185548487510681Q5.796423349227905,11.226494487510681,5.815273349227905,11.27199148751068Q5.834123349227905,11.317488487510682,5.843723349227905,11.365788387510682Q5.853333349227905,11.414087787510681,5.853333349227905,11.463333487510681Q5.853333349227905,11.512579187510681,5.843723349227905,11.56087858751068Q5.834123349227905,11.60917848751068,5.815273349227905,11.654675487510682Q5.796423349227905,11.700172487510681,5.769063349227905,11.74111848751068Q5.741713349227905,11.78206448751068,5.706886349227905,11.816886487510681Q5.672064349227905,11.851708487510681,5.631118349227905,11.879068487510681Q5.590172349227905,11.906427487510681,5.544675349227905,11.925273487510681Q5.499178349227905,11.944118487510682,5.450878349227906,11.95372648751068Q5.4025793492279055,11.963333487510681,5.353333349227905,11.963333487510681ZM5.853333349227905,11.463333487510681Q5.853333349227905,11.512579187510681,5.843723349227905,11.56087858751068Q5.834123349227905,11.60917848751068,5.815273349227905,11.654675487510682Q5.796423349227905,11.700172487510681,5.769063349227905,11.74111848751068Q5.741713349227905,11.78206448751068,5.706886349227905,11.816886487510681Q5.672064349227905,11.851708487510681,5.631118349227905,11.879068487510681Q5.590172349227905,11.906427487510681,5.544675349227905,11.925273487510681Q5.499178349227905,11.944118487510682,5.450878349227906,11.95372648751068Q5.4025793492279055,11.963333487510681,5.353333349227905,11.963333487510681Q5.304087349227905,11.963333487510681,5.255788349227905,11.95372648751068Q5.207488349227905,11.944118487510682,5.161991349227906,11.925273487510681Q5.116494349227906,11.906427487510681,5.075548349227906,11.879068487510681Q5.034602349227905,11.851708487510681,4.999780349227906,11.816886487510681Q4.9649583492279055,11.78206448751068,4.937598349227906,11.74111848751068Q4.910239349227905,11.700172487510681,4.891393349227905,11.654675487510682Q4.872548349227905,11.60917848751068,4.862940349227905,11.56087858751068Q4.853333349227905,11.512579187510681,4.853333349227905,11.463333487510681Q4.853333349227905,11.414087787510681,4.862940349227905,11.365788387510682Q4.872548349227905,11.317488487510682,4.891393349227905,11.27199148751068Q4.910239349227905,11.226494487510681,4.937598349227906,11.185548487510681Q4.9649583492279055,11.144602487510681,4.999780349227906,11.109780487510681Q5.034602349227905,11.074958487510681,5.075548349227906,11.047598487510681Q5.116494349227906,11.02023948751068,5.161991349227906,11.001393487510681Q5.207488349227905,10.98254848751068,5.255788349227905,10.972940487510682Q5.304087349227905,10.963333487510681,5.353333349227905,10.963333487510681Q5.4025793492279055,10.963333487510681,5.450878349227906,10.972940487510682Q5.499178349227905,10.98254848751068,5.544675349227905,11.001393487510681Q5.590172349227905,11.02023948751068,5.631118349227905,11.047598487510681Q5.672064349227905,11.074958487510681,5.706886349227905,11.109780487510681Q5.741713349227905,11.144602487510681,5.769063349227905,11.185548487510681Q5.796423349227905,11.226494487510681,5.815273349227905,11.27199148751068Q5.834123349227905,11.317488487510682,5.843723349227905,11.365788387510682Q5.853333349227905,11.414087787510681,5.853333349227905,11.463333487510681ZM5.233333349227905,11.463333487510681Q5.233333349227905,11.512579187510681,5.223726349227905,11.56087858751068Q5.214118349227905,11.60917848751068,5.1952733492279055,11.654675487510682Q5.176427349227906,11.700172487510681,5.149068349227905,11.74111848751068Q5.121708349227905,11.78206448751068,5.086886349227905,11.816886487510681Q5.052064349227905,11.851708487510681,5.011118349227905,11.879068487510681Q4.970172349227905,11.906427487510681,4.924675349227905,11.925273487510681Q4.879178349227905,11.944118487510682,4.830878449227905,11.95372648751068Q4.782579049227905,11.963333487510681,4.733333349227905,11.963333487510681Q4.684087649227905,11.963333487510681,4.635788249227906,11.95372648751068Q4.587488349227906,11.944118487510682,4.541991349227906,11.925273487510681Q4.4964943492279055,11.906427487510681,4.4555483492279055,11.879068487510681Q4.414602349227906,11.851708487510681,4.3797803492279055,11.816886487510681Q4.344958349227905,11.78206448751068,4.3175983492279055,11.74111848751068Q4.290239349227905,11.700172487510681,4.271393349227905,11.654675487510682Q4.252548349227905,11.60917848751068,4.242940349227905,11.56087858751068Q4.233333349227905,11.512579187510681,4.233333349227905,11.463333487510681Q4.233333349227905,11.414087787510681,4.242940349227905,11.365788387510682Q4.252548349227905,11.317488487510682,4.271393349227905,11.27199148751068Q4.290239349227905,11.226494487510681,4.3175983492279055,11.185548487510681Q4.344958349227905,11.144602487510681,4.3797803492279055,11.109780487510681Q4.414602349227906,11.074958487510681,4.4555483492279055,11.047598487510681Q4.4964943492279055,11.02023948751068,4.541991349227906,11.001393487510681Q4.587488349227906,10.98254848751068,4.635788249227906,10.972940487510682Q4.684087649227905,10.963333487510681,4.733333349227905,10.963333487510681Q4.782579049227905,10.963333487510681,4.830878449227905,10.972940487510682Q4.879178349227905,10.98254848751068,4.924675349227905,11.001393487510681Q4.970172349227905,11.02023948751068,5.011118349227905,11.047598487510681Q5.052064349227905,11.074958487510681,5.086886349227905,11.109780487510681Q5.121708349227905,11.144602487510681,5.149068349227905,11.185548487510681Q5.176427349227906,11.226494487510681,5.1952733492279055,11.27199148751068Q5.214118349227905,11.317488487510682,5.223726349227905,11.365788387510682Q5.233333349227905,11.414087787510681,5.233333349227905,11.463333487510681Z" fill="#1F2937" fill-opacity="1"/></g><g style="mix-blend-mode:passthrough"><path d="M10.196666717529297,3.526663373069763L10.196666717529297,1.3333333730697632Q10.196666717529297,1.2840876730697632,10.206273717529298,1.2357882730697631Q10.215881717529296,1.1874883730697632,10.234726717529297,1.141991373069763Q10.253572717529297,1.0964943730697632,10.280931717529297,1.0555483730697632Q10.308291717529297,1.014602373069763,10.343113717529297,0.9797803730697632Q10.377935717529297,0.9449583730697632,10.418881717529297,0.9175983730697632Q10.459827717529297,0.8902393730697632,10.505324717529296,0.8713933730697632Q10.550821717529297,0.8525483730697632,10.599121617529297,0.8429403730697631Q10.647421017529297,0.8333333730697632,10.696666717529297,0.8333333730697632Q10.745912417529297,0.8333333730697632,10.794211817529296,0.8429403730697631Q10.842511717529296,0.8525483730697632,10.888008717529297,0.8713933730697632Q10.933505717529297,0.8902393730697632,10.974451717529297,0.9175983730697632Q11.015397717529297,0.9449583730697632,11.050219717529297,0.9797803730697632Q11.085041717529297,1.014602373069763,11.112401717529297,1.0555483730697632Q11.139760717529297,1.0964943730697632,11.158606717529297,1.141991373069763Q11.177451717529298,1.1874883730697632,11.187059717529296,1.2357882730697631Q11.196666717529297,1.2840876730697632,11.196666717529297,1.3333333730697632L11.196666717529297,3.526663373069763Q11.196666717529297,3.575913373069763,11.187059717529296,3.624213373069763Q11.177451717529298,3.672513373069763,11.158606717529297,3.718013373069763Q11.139760717529297,3.763503373069763,11.112401717529297,3.804453373069763Q11.085041717529297,3.845393373069763,11.050219717529297,3.880223373069763Q11.015397717529297,3.9150433730697634,10.974451717529297,3.942403373069763Q10.933505717529297,3.969763373069763,10.888008717529297,3.988603373069763Q10.842511717529296,4.0074533730697635,10.794211817529296,4.017063373069764Q10.745912417529297,4.026663373069763,10.696666717529297,4.026663373069763Q10.647421017529297,4.026663373069763,10.599121617529297,4.017063373069764Q10.550821717529297,4.0074533730697635,10.505324717529296,3.988603373069763Q10.459827717529297,3.969763373069763,10.418881717529297,3.942403373069763Q10.377935717529297,3.9150433730697634,10.343113717529297,3.880223373069763Q10.308291717529297,3.845393373069763,10.280931717529297,3.804453373069763Q10.253572717529297,3.763503373069763,10.234726717529297,3.718013373069763Q10.215881717529296,3.672513373069763,10.206273717529298,3.624213373069763Q10.196666717529297,3.575913373069763,10.196666717529297,3.526663373069763ZM11.196666717529297,3.526663373069763Q11.196666717529297,3.575913373069763,11.187059717529296,3.624213373069763Q11.177451717529298,3.672513373069763,11.158606717529297,3.718013373069763Q11.139760717529297,3.763503373069763,11.112401717529297,3.804453373069763Q11.085041717529297,3.845393373069763,11.050219717529297,3.880223373069763Q11.015397717529297,3.9150433730697634,10.974451717529297,3.942403373069763Q10.933505717529297,3.969763373069763,10.888008717529297,3.988603373069763Q10.842511717529296,4.0074533730697635,10.794211817529296,4.017063373069764Q10.745912417529297,4.026663373069763,10.696666717529297,4.026663373069763Q10.647421017529297,4.026663373069763,10.599121617529297,4.017063373069764Q10.550821717529297,4.0074533730697635,10.505324717529296,3.988603373069763Q10.459827717529297,3.969763373069763,10.418881717529297,3.942403373069763Q10.377935717529297,3.9150433730697634,10.343113717529297,3.880223373069763Q10.308291717529297,3.845393373069763,10.280931717529297,3.804453373069763Q10.253572717529297,3.763503373069763,10.234726717529297,3.718013373069763Q10.215881717529296,3.672513373069763,10.206273717529298,3.624213373069763Q10.196666717529297,3.575913373069763,10.196666717529297,3.526663373069763Q10.196666717529297,3.477423373069763,10.206273717529298,3.4291233730697632Q10.215881717529296,3.380823373069763,10.234726717529297,3.3353233730697633Q10.253572717529297,3.2898233730697632,10.280931717529297,3.2488833730697633Q10.308291717529297,3.2079333730697632,10.343113717529297,3.1731133730697634Q10.377935717529297,3.138293373069763,10.418881717529297,3.1109333730697633Q10.459827717529297,3.083573373069763,10.505324717529296,3.0647233730697634Q10.550821717529297,3.0458833730697634,10.599121617529297,3.036273373069763Q10.647421017529297,3.026663373069763,10.696666717529297,3.026663373069763Q10.745912417529297,3.026663373069763,10.794211817529296,3.036273373069763Q10.842511717529296,3.0458833730697634,10.888008717529297,3.0647233730697634Q10.933505717529297,3.083573373069763,10.974451717529297,3.1109333730697633Q11.015397717529297,3.138293373069763,11.050219717529297,3.1731133730697634Q11.085041717529297,3.2079333730697632,11.112401717529297,3.2488833730697633Q11.139760717529297,3.2898233730697632,11.158606717529297,3.3353233730697633Q11.177451717529298,3.380823373069763,11.187059717529296,3.4291233730697632Q11.196666717529297,3.477423373069763,11.196666717529297,3.526663373069763ZM11.196666717529297,1.3333333730697632Q11.196666717529297,1.3825790730697631,11.187059717529296,1.4308784730697632Q11.177451717529298,1.4791783730697632,11.158606717529297,1.5246753730697633Q11.139760717529297,1.5701723730697632,11.112401717529297,1.6111183730697631Q11.085041717529297,1.6520643730697633,11.050219717529297,1.6868863730697632Q11.015397717529297,1.721708373069763,10.974451717529297,1.7490683730697631Q10.933505717529297,1.776427373069763,10.888008717529297,1.7952733730697632Q10.842511717529296,1.8141183730697632,10.794211817529296,1.8237263730697633Q10.745912417529297,1.8333333730697632,10.696666717529297,1.8333333730697632Q10.647421017529297,1.8333333730697632,10.599121617529297,1.8237263730697633Q10.550821717529297,1.8141183730697632,10.505324717529296,1.7952733730697632Q10.459827717529297,1.776427373069763,10.418881717529297,1.7490683730697631Q10.377935717529297,1.721708373069763,10.343113717529297,1.6868863730697632Q10.308291717529297,1.6520643730697633,10.280931717529297,1.6111183730697631Q10.253572717529297,1.5701723730697632,10.234726717529297,1.5246753730697633Q10.215881717529296,1.4791783730697632,10.206273717529298,1.4308784730697632Q10.196666717529297,1.3825790730697631,10.196666717529297,1.3333333730697632Q10.196666717529297,1.2840876730697632,10.206273717529298,1.2357882730697631Q10.215881717529296,1.1874883730697632,10.234726717529297,1.141991373069763Q10.253572717529297,1.0964943730697632,10.280931717529297,1.0555483730697632Q10.308291717529297,1.014602373069763,10.343113717529297,0.9797803730697632Q10.377935717529297,0.9449583730697632,10.418881717529297,0.9175983730697632Q10.459827717529297,0.8902393730697632,10.505324717529296,0.8713933730697632Q10.550821717529297,0.8525483730697632,10.599121617529297,0.8429403730697631Q10.647421017529297,0.8333333730697632,10.696666717529297,0.8333333730697632Q10.745912417529297,0.8333333730697632,10.794211817529296,0.8429403730697631Q10.842511717529296,0.8525483730697632,10.888008717529297,0.8713933730697632Q10.933505717529297,0.8902393730697632,10.974451717529297,0.9175983730697632Q11.015397717529297,0.9449583730697632,11.050219717529297,0.9797803730697632Q11.085041717529297,1.014602373069763,11.112401717529297,1.0555483730697632Q11.139760717529297,1.0964943730697632,11.158606717529297,1.141991373069763Q11.177451717529298,1.1874883730697632,11.187059717529296,1.2357882730697631Q11.196666717529297,1.2840876730697632,11.196666717529297,1.3333333730697632Z" fill="#1F2937" fill-opacity="1"/></g><g style="mix-blend-mode:passthrough"><path d="M4.809999942779541,3.526663373069763L4.809999942779541,1.3333333730697632Q4.809999942779541,1.2840876730697632,4.819606942779541,1.2357882730697631Q4.829214942779541,1.1874883730697632,4.848059942779541,1.141991373069763Q4.866905942779541,1.0964943730697632,4.894264942779541,1.0555483730697632Q4.921624942779541,1.014602373069763,4.956446942779541,0.9797803730697632Q4.991268942779541,0.9449583730697632,5.032214942779541,0.9175983730697632Q5.073160942779541,0.8902393730697632,5.118657942779541,0.8713933730697632Q5.1641549427795415,0.8525483730697632,5.212454842779541,0.8429403730697631Q5.260754242779541,0.8333333730697632,5.309999942779541,0.8333333730697632Q5.359245642779541,0.8333333730697632,5.407545042779541,0.8429403730697631Q5.455844942779541,0.8525483730697632,5.501341942779541,0.8713933730697632Q5.546838942779541,0.8902393730697632,5.587784942779541,0.9175983730697632Q5.628730942779541,0.9449583730697632,5.663552942779541,0.9797803730697632Q5.698374942779541,1.014602373069763,5.725734942779541,1.0555483730697632Q5.753093942779541,1.0964943730697632,5.771939942779541,1.141991373069763Q5.790784942779541,1.1874883730697632,5.800392942779541,1.2357882730697631Q5.809999942779541,1.2840876730697632,5.809999942779541,1.3333333730697632L5.809999942779541,3.526663373069763Q5.809999942779541,3.575913373069763,5.800392942779541,3.624213373069763Q5.790784942779541,3.672513373069763,5.771939942779541,3.718013373069763Q5.753093942779541,3.763503373069763,5.725734942779541,3.804453373069763Q5.698374942779541,3.845393373069763,5.663552942779541,3.880223373069763Q5.628730942779541,3.9150433730697634,5.587784942779541,3.942403373069763Q5.546838942779541,3.969763373069763,5.501341942779541,3.988603373069763Q5.455844942779541,4.0074533730697635,5.407545042779541,4.017063373069764Q5.359245642779541,4.026663373069763,5.309999942779541,4.026663373069763Q5.260754242779541,4.026663373069763,5.212454842779541,4.017063373069764Q5.1641549427795415,4.0074533730697635,5.118657942779541,3.988603373069763Q5.073160942779541,3.969763373069763,5.032214942779541,3.942403373069763Q4.991268942779541,3.9150433730697634,4.956446942779541,3.880223373069763Q4.921624942779541,3.845393373069763,4.894264942779541,3.804453373069763Q4.866905942779541,3.763503373069763,4.848059942779541,3.718013373069763Q4.829214942779541,3.672513373069763,4.819606942779541,3.624213373069763Q4.809999942779541,3.575913373069763,4.809999942779541,3.526663373069763ZM5.809999942779541,3.526663373069763Q5.809999942779541,3.575913373069763,5.800392942779541,3.624213373069763Q5.790784942779541,3.672513373069763,5.771939942779541,3.718013373069763Q5.753093942779541,3.763503373069763,5.725734942779541,3.804453373069763Q5.698374942779541,3.845393373069763,5.663552942779541,3.880223373069763Q5.628730942779541,3.9150433730697634,5.587784942779541,3.942403373069763Q5.546838942779541,3.969763373069763,5.501341942779541,3.988603373069763Q5.455844942779541,4.0074533730697635,5.407545042779541,4.017063373069764Q5.359245642779541,4.026663373069763,5.309999942779541,4.026663373069763Q5.260754242779541,4.026663373069763,5.212454842779541,4.017063373069764Q5.1641549427795415,4.0074533730697635,5.118657942779541,3.988603373069763Q5.073160942779541,3.969763373069763,5.032214942779541,3.942403373069763Q4.991268942779541,3.9150433730697634,4.956446942779541,3.880223373069763Q4.921624942779541,3.845393373069763,4.894264942779541,3.804453373069763Q4.866905942779541,3.763503373069763,4.848059942779541,3.718013373069763Q4.829214942779541,3.672513373069763,4.819606942779541,3.624213373069763Q4.809999942779541,3.575913373069763,4.809999942779541,3.526663373069763Q4.809999942779541,3.477423373069763,4.819606942779541,3.4291233730697632Q4.829214942779541,3.380823373069763,4.848059942779541,3.3353233730697633Q4.866905942779541,3.2898233730697632,4.894264942779541,3.2488833730697633Q4.921624942779541,3.2079333730697632,4.956446942779541,3.1731133730697634Q4.991268942779541,3.138293373069763,5.032214942779541,3.1109333730697633Q5.073160942779541,3.083573373069763,5.118657942779541,3.0647233730697634Q5.1641549427795415,3.0458833730697634,5.212454842779541,3.036273373069763Q5.260754242779541,3.026663373069763,5.309999942779541,3.026663373069763Q5.359245642779541,3.026663373069763,5.407545042779541,3.036273373069763Q5.455844942779541,3.0458833730697634,5.501341942779541,3.0647233730697634Q5.546838942779541,3.083573373069763,5.587784942779541,3.1109333730697633Q5.628730942779541,3.138293373069763,5.663552942779541,3.1731133730697634Q5.698374942779541,3.2079333730697632,5.725734942779541,3.2488833730697633Q5.753093942779541,3.2898233730697632,5.771939942779541,3.3353233730697633Q5.790784942779541,3.380823373069763,5.800392942779541,3.4291233730697632Q5.809999942779541,3.477423373069763,5.809999942779541,3.526663373069763ZM5.809999942779541,1.3333333730697632Q5.809999942779541,1.3825790730697631,5.800392942779541,1.4308784730697632Q5.790784942779541,1.4791783730697632,5.771939942779541,1.5246753730697633Q5.753093942779541,1.5701723730697632,5.725734942779541,1.6111183730697631Q5.698374942779541,1.6520643730697633,5.663552942779541,1.6868863730697632Q5.628730942779541,1.721708373069763,5.587784942779541,1.7490683730697631Q5.546838942779541,1.776427373069763,5.501341942779541,1.7952733730697632Q5.455844942779541,1.8141183730697632,5.407545042779541,1.8237263730697633Q5.359245642779541,1.8333333730697632,5.309999942779541,1.8333333730697632Q5.260754242779541,1.8333333730697632,5.212454842779541,1.8237263730697633Q5.1641549427795415,1.8141183730697632,5.118657942779541,1.7952733730697632Q5.073160942779541,1.776427373069763,5.032214942779541,1.7490683730697631Q4.991268942779541,1.721708373069763,4.956446942779541,1.6868863730697632Q4.921624942779541,1.6520643730697633,4.894264942779541,1.6111183730697631Q4.866905942779541,1.5701723730697632,4.848059942779541,1.5246753730697633Q4.829214942779541,1.4791783730697632,4.819606942779541,1.4308784730697632Q4.809999942779541,1.3825790730697631,4.809999942779541,1.3333333730697632Q4.809999942779541,1.2840876730697632,4.819606942779541,1.2357882730697631Q4.829214942779541,1.1874883730697632,4.848059942779541,1.141991373069763Q4.866905942779541,1.0964943730697632,4.894264942779541,1.0555483730697632Q4.921624942779541,1.014602373069763,4.956446942779541,0.9797803730697632Q4.991268942779541,0.9449583730697632,5.032214942779541,0.9175983730697632Q5.073160942779541,0.8902393730697632,5.118657942779541,0.8713933730697632Q5.1641549427795415,0.8525483730697632,5.212454842779541,0.8429403730697631Q5.260754242779541,0.8333333730697632,5.309999942779541,0.8333333730697632Q5.359245642779541,0.8333333730697632,5.407545042779541,0.8429403730697631Q5.455844942779541,0.8525483730697632,5.501341942779541,0.8713933730697632Q5.546838942779541,0.8902393730697632,5.587784942779541,0.9175983730697632Q5.628730942779541,0.9449583730697632,5.663552942779541,0.9797803730697632Q5.698374942779541,1.014602373069763,5.725734942779541,1.0555483730697632Q5.753093942779541,1.0964943730697632,5.771939942779541,1.141991373069763Q5.790784942779541,1.1874883730697632,5.800392942779541,1.2357882730697631Q5.809999942779541,1.2840876730697632,5.809999942779541,1.3333333730697632Z" fill="#1F2937" fill-opacity="1"/></g><g style="mix-blend-mode:passthrough"><path d="M10.83,2.8866666555404663L5.18,2.8866666555404663Q3.89114,2.8866666555404663,3.1998100000000003,3.5450066555404662Q2.5,4.211416655540466,2.5,5.486666655540466L2.5,11.516666655540467Q2.5,12.811666655540467,3.20321,13.494066655540466Q3.89625,14.166666655540466,5.18,14.166666655540466L10.82,14.166666655540466Q12.1066,14.166666655540466,12.7998,13.504966655540466Q13.5,12.836566655540466,13.5,11.566666655540466L13.5,5.486666655540466Q13.5063,4.210636655540466,12.8085,3.5446166555404663Q12.1192,2.8866666555404663,10.83,2.8866666555404663L10.83,2.8866666555404663ZM10.83,1.8866666555404663Q12.5198,1.8866666555404663,13.499,2.821220655540466Q14.5085,3.784736655540466,14.5,5.486666655540466L14.5,11.566666655540466Q14.5,13.264466655540467,13.4902,14.228366655540466Q12.5072,15.166666655540466,10.82,15.166666655540466L5.18,15.166666655540466Q3.4908,15.166666655540466,2.506787,14.211766655540467Q1.5,13.234666655540467,1.5,11.516666655540467L1.5,5.486666655540466Q1.5,3.7828066555404662,2.510193,2.8208276555404663Q3.4911700000000003,1.8866666555404663,5.18,1.8866666555404663L10.83,1.8866666555404663L10.83,1.8866666555404663Z" fill="#1F2937" fill-opacity="1"/></g></g></g></g></g></svg>