<svg xmlns="http://www.w3.org/2000/svg" xmlns:xlink="http://www.w3.org/1999/xlink" width="15" height="16" viewBox="0 0 15 16" fill="none"><path id="点赞" fill-rule="evenodd" style="fill:#999999" transform="translate(0 0)  rotate(0 7.5 8)" opacity="1" d="M0 7.48L0 14.74C0 15.44 0.5 16 1.13 16L12.05 16C12.87 16 13.58 15.34 13.74 14.44L14.97 7.18C15.07 6.62 14.93 6.04 14.6 5.6C14.28 5.16 13.79 4.91 13.28 4.91L8.85 4.91C9.06 4.08 9.16 3.35 9.16 2.7C9.16 1.23 7.96 -0.17 6.81 0.02C5.8 0.18 5.31 1.13 5.31 2.36L5.31 3.47C5.31 4.89 4.34 6.1 3.1 6.23L1.13 6.23C0.5 6.23 0 6.79 0 7.48Z M1.07143 14.7407Z M1.13143 14.8007L2.41143 14.8007L2.41143 7.42067L1.13143 7.42067C1.10143 7.42067 1.07143 7.45067 1.07143 7.48067L1.07143 14.7407C1.07143 14.7807 1.10143 14.8007 1.13143 14.8007Z M13.9221 6.95447Z M8.11214 6.10447C7.94214 6.10447 7.78214 6.00447 7.68214 5.85447C7.58214 5.69447 7.55214 5.49447 7.61214 5.30447C7.93214 4.26447 8.09214 3.39447 8.09214 2.70447C8.09214 1.91447 7.42214 1.12447 6.96214 1.19447C6.58214 1.26447 6.38214 1.65447 6.38214 2.36447L6.38214 3.46447C6.38214 5.37447 5.16214 7.01447 3.48214 7.36447L3.48214 14.8045L12.0421 14.8045C12.3621 14.8045 12.6221 14.5545 12.6821 14.2145L13.9221 6.95447C13.9521 6.74447 13.9021 6.52447 13.7821 6.36447C13.6521 6.19447 13.4721 6.10447 13.2821 6.10447L8.11214 6.10447Z " /></svg>