<svg xmlns="http://www.w3.org/2000/svg" xmlns:xlink="http://www.w3.org/1999/xlink" fill="none" version="1.1" width="16" height="16" viewBox="0 0 16 16"><defs><mask id="master_svg0_0_365"><g style="mix-blend-mode:passthrough"><path d="M0 0C0 0 0 0 0 0L16 0C16 0 16 0 16 0L16 16C16 16 16 16 16 16L0 16C0 16 0 16 0 16Z" fill="#FFFFFF" fill-opacity="1"/></g></mask></defs><g style="mix-blend-mode:passthrough"><g><g style="mix-blend-mode:passthrough"></g></g><g mask="url(#master_svg0_0_365)"><g style="mix-blend-mode:passthrough"><path d="M0,16L16,16L16,0L0,0L0,16Z" fill-rule="evenodd" fill="#FFFFFF" fill-opacity="0.009999999776482582"/></g><g style="mix-blend-mode:passthrough"><path d="M10.336666507720947,4.33C10.336666507720947,3.04,9.286666507720948,2,7.996666507720947,2C6.706666507720947,2,5.666666507720947,3.04,5.666666507720947,4.33C5.666666507720947,5.62,6.706666507720947,6.67,7.996666507720947,6.67C9.286666507720948,6.67,10.336666507720947,5.62,10.336666507720947,4.33Z" fill-rule="evenodd" fill="#D8D8D8" fill-opacity="0.009999999776482582"/><path d="M7.996666507720947,6.00333Q8.688026507720947,6.00333,9.179016507720947,5.51235Q9.669996507720947,5.02136,9.669996507720947,4.33Q9.669996507720947,3.6407499999999997,9.180406507720948,3.15405Q8.690136507720947,2.666667,7.996666507720947,2.666667Q7.305306507720948,2.666667,6.819316507720947,3.15265Q6.333333507720948,3.63864,6.333333507720948,4.33Q6.333333507720948,5.02347,6.820716507720947,5.51374Q7.307416507720947,6.00333,7.996666507720947,6.00333ZM7.996666507720947,7.33667Q6.752816507720947,7.33667,5.875119507720948,6.45376Q4.999999507720947,5.57344,4.999999507720947,4.33Q4.999999507720947,3.08636,5.876511507720947,2.209845Q6.753026507720947,1.333333,7.996666507720947,1.333333Q9.240106507720947,1.333333,10.120426507720946,2.208453Q11.003336507720947,3.08615,11.003336507720947,4.33Q11.003336507720947,5.57364,10.121816507720947,6.45515Q9.240306507720948,7.33667,7.996666507720947,7.33667Z" fill="#333333" fill-opacity="1"/></g><g style="mix-blend-mode:passthrough"><path d="M4,2.418226718902588C3.4,2.838226718902588,3,3.538226718902588,3,4.338226718902588C3,5.178226718902588,3.45,5.928226718902588,4.13,6.338226718902588" fill-rule="evenodd" fill="#D8D8D8" fill-opacity="0.009999999776482582"/><path d="M3.785769,6.909146718902588Q3.120641,6.5081167189025875,2.731949,5.831596718902588Q2.333333,5.137796718902588,2.333333,4.338226718902588Q2.333333,2.7711227189025878,3.617692,1.872071718902588Q3.6714830000000003,1.8344177189025879,3.731587,1.807981718902588Q3.791691,1.7815457189025878,3.855797,1.7673427189025879Q3.919904,1.753139718902588,3.985549,1.7517167189025877Q4.05119,1.7502937189025878,4.11586,1.7617047189025878Q4.18052,1.773115718902588,4.24171,1.796921718902588Q4.3029,1.820728718902588,4.35828,1.8560157189025879Q4.4136500000000005,1.891302718902588,4.46108,1.936714718902588Q4.5085,1.982126718902588,4.54615,2.035918718902588Q4.58381,2.0897097189025877,4.61024,2.149813718902588Q4.63668,2.209917718902588,4.65088,2.274024718902588Q4.66509,2.338130818902588,4.66651,2.403776318902588Q4.66793,2.469421818902588,4.65652,2.534083718902588Q4.64511,2.5987457189025878,4.6213,2.659938718902588Q4.5975,2.721131718902588,4.56221,2.7765047189025878Q4.5269200000000005,2.8318777189025877,4.48151,2.8793027189025877Q4.4361,2.9267277189025878,4.38231,2.9643817189025876Q3.666667,3.465326718902588,3.666667,4.338226718902588Q3.666667,5.280396718902588,4.47423,5.767306718902588Q4.53046,5.801206718902588,4.579,5.845436718902588Q4.62753,5.889656718902588,4.66651,5.9424967189025875Q4.70549,5.995336718902587,4.7334,6.054766718902588Q4.7613199999999996,6.114196718902588,4.77711,6.177936718902588Q4.7928999999999995,6.241666718902588,4.7959499999999995,6.307256718902588Q4.7989999999999995,6.372846718902588,4.78919,6.437776718902588Q4.77939,6.5026967189025875,4.75711,6.564466718902588Q4.73482,6.626226718902588,4.70092,6.682456718902588Q4.66702,6.738686718902588,4.62279,6.787226718902588Q4.57857,6.835756718902588,4.52573,6.874736718902588Q4.47289,6.913706718902588,4.41346,6.9416267189025875Q4.35403,6.9695467189025875,4.29029,6.9853367189025874Q4.22656,7.001126718902588,4.16097,7.004176718902588Q4.0953800000000005,7.007226718902588,4.03045,6.9974167189025875Q3.965529,6.987616718902588,3.903764,6.965336718902588Q3.841999,6.943046718902588,3.785769,6.909146718902588ZM4.795,6.338226718902588Q4.795,6.403726718902588,4.78222,6.467956718902588Q4.7694399999999995,6.532196718902588,4.74438,6.592706718902588Q4.71932,6.653226718902588,4.68293,6.707676718902588Q4.64654,6.762136718902588,4.60023,6.808456718902588Q4.55391,6.854766718902588,4.4994499999999995,6.891156718902588Q4.445,6.927536718902588,4.38448,6.9526067189025875Q4.32397,6.977666718902588,4.25973,6.990446718902588Q4.1955,7.003226718902588,4.13,7.003226718902588Q4.0645,7.003226718902588,4.00026,6.990446718902588Q3.936027,6.977666718902588,3.875515,6.9526067189025875Q3.815004,6.927536718902588,3.760546,6.891156718902588Q3.706087,6.854766718902588,3.659774,6.808456718902588Q3.613461,6.762136718902588,3.577073,6.707676718902588Q3.540685,6.653226718902588,3.51562,6.592706718902588Q3.4905559999999998,6.532196718902588,3.477778,6.467956718902588Q3.465,6.403726718902588,3.465,6.338226718902588Q3.465,6.272726718902588,3.477778,6.208486718902588Q3.4905559999999998,6.144256718902588,3.51562,6.083746718902588Q3.540685,6.023226718902588,3.577073,5.968776718902587Q3.613461,5.9143167189025885,3.659774,5.867996718902588Q3.706087,5.821686718902588,3.760546,5.785296718902588Q3.815004,5.748906718902588,3.875515,5.723846718902587Q3.936027,5.698786718902587,4.00026,5.686006718902588Q4.0645,5.673226718902588,4.13,5.673226718902588Q4.1955,5.673226718902588,4.25973,5.686006718902588Q4.32397,5.698786718902587,4.38448,5.723846718902587Q4.445,5.748906718902588,4.4994499999999995,5.785296718902588Q4.55391,5.821686718902588,4.60023,5.867996718902588Q4.64654,5.9143167189025885,4.68293,5.968776718902587Q4.71932,6.023226718902588,4.74438,6.083746718902588Q4.7694399999999995,6.144256718902588,4.78222,6.208486718902588Q4.795,6.272726718902588,4.795,6.338226718902588ZM4.665,2.418226718902588Q4.665,2.483723518902588,4.65222,2.547961718902588Q4.6394400000000005,2.612199718902588,4.61438,2.672710718902588Q4.58932,2.7332227189025877,4.55293,2.787680718902588Q4.51654,2.8421397189025877,4.47023,2.8884527189025877Q4.42391,2.9347657189025877,4.3694500000000005,2.971153718902588Q4.3149999999999995,3.007541718902588,4.25448,3.032606718902588Q4.19397,3.057670718902588,4.12973,3.070448718902588Q4.0655,3.083226718902588,4,3.083226718902588Q3.934503,3.083226718902588,3.870265,3.070448718902588Q3.8060270000000003,3.057670718902588,3.745515,3.032606718902588Q3.685004,3.007541718902588,3.630546,2.971153718902588Q3.5760870000000002,2.9347657189025877,3.5297739999999997,2.8884527189025877Q3.483461,2.8421397189025877,3.447073,2.787680718902588Q3.410685,2.7332227189025877,3.38562,2.672710718902588Q3.360556,2.612199718902588,3.347778,2.547961718902588Q3.335,2.483723518902588,3.335,2.418226718902588Q3.335,2.352729918902588,3.347778,2.2884917189025877Q3.360556,2.2242537189025877,3.38562,2.1637427189025877Q3.410685,2.103230718902588,3.447073,2.0487727189025877Q3.483461,1.994313718902588,3.5297739999999997,1.9480007189025879Q3.5760870000000002,1.901687718902588,3.630546,1.865299718902588Q3.685004,1.8289117189025879,3.745515,1.8038467189025877Q3.8060270000000003,1.7787827189025878,3.870265,1.7660047189025878Q3.934503,1.7532267189025879,4,1.7532267189025879Q4.0655,1.7532267189025879,4.12973,1.7660047189025878Q4.19397,1.7787827189025878,4.25448,1.8038467189025877Q4.3149999999999995,1.8289117189025879,4.3694500000000005,1.865299718902588Q4.42391,1.901687718902588,4.47023,1.9480007189025879Q4.51654,1.994313718902588,4.55293,2.0487727189025877Q4.58932,2.103230718902588,4.61438,2.1637427189025877Q4.6394400000000005,2.2242537189025877,4.65222,2.2884917189025877Q4.665,2.352729918902588,4.665,2.418226718902588Z" fill="#333333" fill-opacity="1"/></g><g style="mix-blend-mode:passthrough"><path d="M12,2.418226718902588C12.6,2.838226718902588,13,3.538226718902588,13,4.338226718902588C13,5.128226718902588,12.6,5.828226718902588,12,6.248226718902588" fill-rule="evenodd" fill="#D8D8D8" fill-opacity="0.009999999776482582"/><path d="M11.617692,5.702076718902588Q12.333333,5.201126718902588,12.333333,4.338226718902588Q12.333333,3.465326718902588,11.617692,2.9643817189025876Q11.5639,2.9267277189025878,11.518488,2.8793027189025877Q11.473076,2.8318777189025877,11.437789,2.7765047189025878Q11.402502,2.721131718902588,11.378695,2.659938718902588Q11.354889,2.5987457189025878,11.343478,2.534083718902588Q11.332067,2.469421818902588,11.33349,2.403776318902588Q11.334913,2.338130818902588,11.349116,2.274024718902588Q11.363319,2.209917718902588,11.389755,2.149813718902588Q11.416191,2.0897097189025877,11.453845,2.035918718902588Q11.491499,1.982126718902588,11.538924,1.936714718902588Q11.586349,1.891302718902588,11.641722,1.8560157189025879Q11.697095000000001,1.820728718902588,11.758288,1.796921718902588Q11.819481,1.773115718902588,11.884143,1.7617047189025878Q11.9488049,1.7502937189025878,12.0144504,1.7517167189025877Q12.0800959,1.753139718902588,12.144202,1.7673427189025879Q12.208309,1.7815457189025878,12.268413,1.807981718902588Q12.328517,1.8344177189025879,12.382308,1.872071718902588Q13.66667,2.7711227189025878,13.66667,4.338226718902588Q13.66667,5.895326718902588,12.382308,6.794376718902588Q12.328517,6.832036718902588,12.268413,6.858466718902588Q12.208309,6.884906718902588,12.144202,6.899106718902588Q12.0800958,6.913316718902588,12.0144503,6.914736718902588Q11.9488048,6.916156718902588,11.884143,6.9047467189025875Q11.819481,6.893336718902588,11.758288,6.869526718902588Q11.697095000000001,6.845726718902588,11.641722,6.810436718902588Q11.586349,6.775146718902588,11.538924,6.729736718902588Q11.491499,6.684326718902588,11.453845,6.630536718902588Q11.416191,6.576746718902588,11.389755,6.516636718902588Q11.363319,6.456536718902588,11.349116,6.392426718902588Q11.334913,6.328326718902588,11.33349,6.262676718902588Q11.332067,6.197026718902588,11.343478,6.132366718902588Q11.354889,6.067706718902588,11.378695,6.0065167189025885Q11.402502,5.945316718902587,11.437789,5.889946718902587Q11.473076,5.8345767189025874,11.518488,5.787146718902588Q11.5639,5.739726718902588,11.617692,5.702076718902588ZM12.665,6.248226718902588Q12.665,6.313726718902588,12.652222,6.377956718902588Q12.639444,6.442196718902588,12.61438,6.502706718902588Q12.589315,6.5632267189025875,12.552927,6.617676718902588Q12.516539,6.672136718902588,12.470226,6.718456718902588Q12.423913,6.764766718902588,12.369454,6.801156718902588Q12.314996,6.837536718902588,12.254484,6.862606718902588Q12.193973,6.8876667189025875,12.129735,6.900446718902588Q12.0654968,6.913226718902588,12,6.913226718902588Q11.9345032,6.913226718902588,11.870265,6.900446718902588Q11.806027,6.8876667189025875,11.745516,6.862606718902588Q11.685004,6.837536718902588,11.630546,6.801156718902588Q11.576087,6.764766718902588,11.529774,6.718456718902588Q11.483461,6.672136718902588,11.447073,6.617676718902588Q11.410685,6.5632267189025875,11.38562,6.502706718902588Q11.360556,6.442196718902588,11.347778,6.377956718902588Q11.335,6.313726718902588,11.335,6.248226718902588Q11.335,6.182726718902588,11.347778,6.118486718902588Q11.360556,6.054256718902588,11.38562,5.993746718902588Q11.410685,5.9332267189025885,11.447073,5.8787767189025875Q11.483461,5.824316718902588,11.529774,5.777996718902588Q11.576087,5.731686718902588,11.630546,5.695296718902588Q11.685004,5.658906718902587,11.745516,5.633846718902587Q11.806027,5.6087867189025875,11.870265,5.596006718902588Q11.9345032,5.583226718902588,12,5.583226718902588Q12.0654968,5.583226718902588,12.129735,5.596006718902588Q12.193973,5.6087867189025875,12.254484,5.633846718902587Q12.314996,5.658906718902587,12.369454,5.695296718902588Q12.423913,5.731686718902588,12.470226,5.777996718902588Q12.516539,5.824316718902588,12.552927,5.8787767189025875Q12.589315,5.9332267189025885,12.61438,5.993746718902588Q12.639444,6.054256718902588,12.652222,6.118486718902588Q12.665,6.182726718902588,12.665,6.248226718902588ZM12.665,2.418226718902588Q12.665,2.483723518902588,12.652222,2.547961718902588Q12.639444,2.612199718902588,12.61438,2.672710718902588Q12.589315,2.7332227189025877,12.552927,2.787680718902588Q12.516539,2.8421397189025877,12.470226,2.8884527189025877Q12.423913,2.9347657189025877,12.369454,2.971153718902588Q12.314996,3.007541718902588,12.254484,3.032606718902588Q12.193973,3.057670718902588,12.129735,3.070448718902588Q12.0654968,3.083226718902588,12,3.083226718902588Q11.9345032,3.083226718902588,11.870265,3.070448718902588Q11.806027,3.057670718902588,11.745516,3.032606718902588Q11.685004,3.007541718902588,11.630546,2.971153718902588Q11.576087,2.9347657189025877,11.529774,2.8884527189025877Q11.483461,2.8421397189025877,11.447073,2.787680718902588Q11.410685,2.7332227189025877,11.38562,2.672710718902588Q11.360556,2.612199718902588,11.347778,2.547961718902588Q11.335,2.483723518902588,11.335,2.418226718902588Q11.335,2.352729918902588,11.347778,2.2884917189025877Q11.360556,2.2242537189025877,11.38562,2.1637427189025877Q11.410685,2.103230718902588,11.447073,2.0487727189025877Q11.483461,1.994313718902588,11.529774,1.9480007189025879Q11.576087,1.901687718902588,11.630546,1.865299718902588Q11.685004,1.8289117189025879,11.745516,1.8038467189025877Q11.806027,1.7787827189025878,11.870265,1.7660047189025878Q11.9345032,1.7532267189025879,12,1.7532267189025879Q12.0654968,1.7532267189025879,12.129735,1.7660047189025878Q12.193973,1.7787827189025878,12.254484,1.8038467189025877Q12.314996,1.8289117189025879,12.369454,1.865299718902588Q12.423913,1.901687718902588,12.470226,1.9480007189025879Q12.516539,1.994313718902588,12.552927,2.0487727189025877Q12.589315,2.103230718902588,12.61438,2.1637427189025877Q12.639444,2.2242537189025877,12.652222,2.2884917189025877Q12.665,2.352729918902588,12.665,2.418226718902588Z" fill="#333333" fill-opacity="1"/></g><g style="mix-blend-mode:passthrough"><path d="M4.2,10.983333015441895C4,11.473333015441895,4,12.093333015441894,4,13.333333015441895L4,14.003333015441894L12,14.003333015441894L12,13.333333015441895C12,12.093333015441894,12,11.473333015441895,11.8,10.983333015441895C11.530000000000001,10.323333015441895,11.01,9.803333015441895,10.35,9.533333015441894C9.86,9.333333015441895,9.24,9.333333015441895,8,9.333333015441895C6.76,9.333333015441895,6.140000000000001,9.333333015441895,5.65,9.533333015441894C4.99,9.803333015441895,4.47,10.323333015441895,4.2,10.983333015441895Z" fill-rule="evenodd" fill="#D8D8D8" fill-opacity="0.009999999776482582"/><path d="M5.90242,10.150364015441895Q5.13214,10.465473015441894,4.817031,11.235753015441894Q4.666667,11.604153015441895,4.666667,13.333333015441895L4.666667,14.003333015441894L4,14.003333015441894L4,13.336663015441895L12,13.336663015441895L12,14.003333015441894L11.33333,14.003333015441894L11.33333,13.333333015441895Q11.33333,11.604153015441895,11.18277,11.235263015441895Q10.86786,10.465473015441894,10.09758,10.150364015441895Q9.72918,10.000000015441895,8,10.000000015441895Q6.2708200000000005,10.000000015441895,5.90193,10.150565015441895L5.90242,10.150364015441895ZM5.39807,8.916101015441894Q5.83464,8.737908015441894,6.49896,8.693173015441895Q6.892580000000001,8.666666015441894,8,8.666666015441894Q9.107420000000001,8.666666015441894,9.50104,8.693173015441895Q10.16536,8.737908015441894,10.60242,8.916302015441895Q11.89021,9.443123015441895,12.41723,10.731403015441895Q12.59543,11.167973015441895,12.64016,11.832293015441895Q12.66667,12.225913015441895,12.66667,13.333333015441895L12.66667,14.003333015441894Q12.66667,14.068993015441894,12.65386,14.133393015441895Q12.64105,14.197793015441896,12.61592,14.258453015441894Q12.59079,14.319113015441895,12.55431,14.373713015441894Q12.51783,14.428303015441895,12.4714,14.474733015441895Q12.42497,14.521163015441894,12.37038,14.557643015441894Q12.31578,14.594123015441895,12.25512,14.619253015441895Q12.19446,14.644383015441894,12.13006,14.657193015441894Q12.06566,14.670003015441894,12,14.670003015441894L4,14.670003015441894Q3.9343391,14.670003015441894,3.86994,14.657193015441894Q3.805541,14.644383015441894,3.744878,14.619253015441895Q3.684215,14.594123015441895,3.62962,14.557643015441894Q3.575025,14.521163015441894,3.528596,14.474733015441895Q3.482166,14.428303015441895,3.445687,14.373713015441894Q3.409208,14.319113015441895,3.38408,14.258453015441894Q3.358953,14.197793015441896,3.346143,14.133393015441895Q3.333333,14.068993015441894,3.333333,14.003333015441894L3.333333,13.333333015441895Q3.333333,12.225913015441895,3.35984,11.832293015441895Q3.404575,11.167973015441895,3.582969,10.730913015441894Q4.109791,9.443124015441894,5.39758,8.916302015441895L5.39807,8.916101015441894Z" fill="#333333" fill-opacity="1"/></g><g style="mix-blend-mode:passthrough"><path d="M14.670599899291993,14.003966217041015L14.670599899291993,13.603966217041016C14.670599899291993,12.103966217041016,14.670599899291993,11.363966217041016,14.380599899291992,10.793966217041016C14.120599899291992,10.283966217041016,13.710599899291992,9.883966217041015,13.210599899291992,9.623966217041016" fill-rule="evenodd" fill="#D8D8D8" fill-opacity="0.009999999776482582"/><path d="M13.518167899291992,9.032488217041015Q14.487989899291993,9.536796417041016,14.974539899291992,10.491174217041015Q15.233849899291993,11.000866217041015,15.298799899291993,11.795936217041016Q15.337269899291993,12.266776217041016,15.337269899291993,13.603966217041016L15.337269899291993,14.003966217041015Q15.337269899291993,14.069626217041016,15.324459899291991,14.134026217041015Q15.311649899291993,14.198426217041016,15.286519899291992,14.259086217041016Q15.261389899291991,14.319756217041014,15.224909899291992,14.374346217041015Q15.188429899291993,14.428946217041016,15.141999899291992,14.475366217041016Q15.095579899291993,14.521796217041015,15.040979899291992,14.558276217041016Q14.986379899291991,14.594756217041017,14.925719899291993,14.619886217041016Q14.865059899291992,14.645016217041015,14.800659899291992,14.657826217041016Q14.736259899291992,14.670636217041015,14.670599899291993,14.670636217041015Q14.604939899291992,14.670636217041015,14.540539899291993,14.657826217041016Q14.476139899291992,14.645016217041015,14.415479899291991,14.619886217041016Q14.354809899291991,14.594756217041017,14.300219899291992,14.558276217041016Q14.245619899291992,14.521796217041015,14.199194899291992,14.475366217041016Q14.152765899291992,14.428946217041016,14.116286899291993,14.374346217041015Q14.079807899291993,14.319756217041014,14.054679899291992,14.259086217041016Q14.029552899291993,14.198426217041016,14.016742899291993,14.134026217041015Q14.003932899291993,14.069626217041016,14.003932899291993,14.003966217041015L14.003932899291993,13.603966217041016Q14.003932899291993,11.523806217041015,13.786662899291992,11.096756217041015Q13.494040899291992,10.522769217041017,12.903031899291992,10.215444217041016Q12.844775899291992,10.185151217041016,12.793549899291992,10.144075217041015Q12.742322899291992,10.102999217041015,12.700094899291992,10.052719217041016Q12.657866899291992,10.002439217041015,12.626258899291992,9.944886217041015Q12.594650899291992,9.887333217041016,12.574877899291993,9.824720217041016Q12.555105899291991,9.762107217041015,12.547927899291992,9.696839817041015Q12.540750899291993,9.631572377041016,12.546443899291992,9.566158717041017Q12.552137899291992,9.500745217041016,12.570483899291991,9.437699217041015Q12.588828899291991,9.374653217041015,12.619121899291992,9.316398217041016Q12.649414899291992,9.258142217041016,12.690490899291992,9.206916217041016Q12.731566899291993,9.155689217041015,12.781846899291992,9.113461217041015Q12.832126899291993,9.071233217041016,12.889679899291993,9.039625217041015Q12.947232899291992,9.008017217041015,13.009845899291992,8.988244217041016Q13.072458899291993,8.968472217041015,13.137726299291993,8.961294217041015Q13.202993739291992,8.954117217041016,13.268407399291991,8.959810217041015Q13.333820899291991,8.965504217041016,13.396866899291993,8.983850217041015Q13.459912899291993,9.002195217041015,13.518167899291992,9.032488217041015ZM13.875599899291991,9.623966217041016Q13.875599899291991,9.689463017041016,13.862821899291992,9.753701217041016Q13.850043899291991,9.817939217041015,13.824979899291993,9.878450217041015Q13.799914899291991,9.938962217041016,13.763526899291993,9.993420217041015Q13.727138899291992,10.047879217041016,13.680825899291992,10.094192217041016Q13.634512899291993,10.140505217041015,13.580053899291991,10.176893217041016Q13.525595899291993,10.213281217041015,13.465083899291992,10.238346217041016Q13.404572899291992,10.263410217041015,13.340334899291992,10.276188217041016Q13.276096699291992,10.288966217041015,13.210599899291992,10.288966217041015Q13.145103099291992,10.288966217041015,13.080864899291992,10.276188217041016Q13.016626899291992,10.263410217041015,12.956115899291992,10.238346217041016Q12.895603899291991,10.213281217041015,12.841145899291993,10.176893217041016Q12.786686899291992,10.140505217041015,12.740373899291992,10.094192217041016Q12.694060899291992,10.047879217041016,12.657672899291992,9.993420217041015Q12.621284899291993,9.938962217041016,12.596219899291992,9.878450217041015Q12.571155899291993,9.817939217041015,12.558377899291992,9.753701217041016Q12.545599899291993,9.689463017041016,12.545599899291993,9.623966217041016Q12.545599899291993,9.558469417041016,12.558377899291992,9.494231217041015Q12.571155899291993,9.429993217041016,12.596219899291992,9.369482217041016Q12.621284899291993,9.308970217041015,12.657672899291992,9.254512217041016Q12.694060899291992,9.200053217041015,12.740373899291992,9.153740217041015Q12.786686899291992,9.107427217041016,12.841145899291993,9.071039217041015Q12.895603899291991,9.034651217041016,12.956115899291992,9.009586217041015Q13.016626899291992,8.984522217041016,13.080864899291992,8.971744217041016Q13.145103099291992,8.958966217041016,13.210599899291992,8.958966217041016Q13.276096699291992,8.958966217041016,13.340334899291992,8.971744217041016Q13.404572899291992,8.984522217041016,13.465083899291992,9.009586217041015Q13.525595899291993,9.034651217041016,13.580053899291991,9.071039217041015Q13.634512899291993,9.107427217041016,13.680825899291992,9.153740217041015Q13.727138899291992,9.200053217041015,13.763526899291993,9.254512217041016Q13.799914899291991,9.308970217041015,13.824979899291993,9.369482217041016Q13.850043899291991,9.429993217041016,13.862821899291992,9.494231217041015Q13.875599899291991,9.558469417041016,13.875599899291991,9.623966217041016ZM15.335599899291992,14.003966217041015Q15.335599899291992,14.069466217041015,15.322819899291993,14.133706217041016Q15.310039899291992,14.197936217041015,15.284979899291992,14.258446217041016Q15.259909899291992,14.318966217041016,15.223529899291993,14.373416217041015Q15.187139899291992,14.427876217041016,15.140829899291992,14.474196217041015Q15.094509899291992,14.520506217041016,15.040049899291992,14.556896217041015Q14.985599899291993,14.593286217041015,14.925079899291992,14.618346217041015Q14.864569899291991,14.643406217041015,14.800339899291991,14.656186217041014Q14.736099899291993,14.668966217041016,14.670599899291993,14.668966217041016Q14.605099899291993,14.668966217041016,14.540859899291991,14.656186217041014Q14.476629899291993,14.643406217041015,14.416119899291992,14.618346217041015Q14.355599899291992,14.593286217041015,14.301149899291993,14.556896217041015Q14.246689899291992,14.520506217041016,14.200373899291993,14.474196217041015Q14.154060899291991,14.427876217041016,14.117672899291993,14.373416217041015Q14.081284899291992,14.318956217041016,14.056219899291992,14.258446217041016Q14.031155899291992,14.197936217041015,14.018377899291993,14.133706217041016Q14.005599899291992,14.069466217041015,14.005599899291992,14.003966217041015Q14.005599899291992,13.938466217041015,14.018377899291993,13.874226217041016Q14.031155899291992,13.809996217041014,14.056219899291992,13.749486217041015Q14.081284899291992,13.688966217041017,14.117672899291993,13.634516217041016Q14.154060899291991,13.580056217041015,14.200373899291993,13.533736217041016Q14.246689899291992,13.487426217041016,14.301149899291993,13.451036217041015Q14.355599899291992,13.414646217041016,14.416119899291992,13.389586217041016Q14.476629899291993,13.364526217041016,14.540859899291991,13.351746217041015Q14.605099899291993,13.338966217041015,14.670599899291993,13.338966217041015Q14.736099899291993,13.338966217041015,14.800339899291991,13.351746217041015Q14.864569899291991,13.364526217041016,14.925079899291992,13.389586217041016Q14.985599899291993,13.414646217041016,15.040049899291992,13.451036217041015Q15.094509899291992,13.487426217041016,15.140829899291992,13.533736217041016Q15.187139899291992,13.580056217041015,15.223529899291993,13.634516217041016Q15.259909899291992,13.688966217041017,15.284979899291992,13.749486217041015Q15.310039899291992,13.809996217041014,15.322819899291993,13.874226217041016Q15.335599899291992,13.938466217041015,15.335599899291992,14.003966217041015Z" fill="#333333" fill-opacity="1"/></g><g style="mix-blend-mode:passthrough"><path d="M1.3333632946014404,14.003966217041015L1.3333632946014404,13.603966217041016C1.3333632946014404,12.103966217041016,1.3333632946014404,11.363966217041016,1.6233632946014405,10.793966217041016C1.8833632946014405,10.283966217041016,2.2833632946014406,9.883966217041015,2.7933632946014404,9.623966217041016" fill-rule="evenodd" fill="#D8D8D8" fill-opacity="0.009999999776482582"/><path d="M3.0961532946014403,10.217903217041016Q2.5140532946014407,10.514659217041016,2.2173012946014405,11.096756217041015Q2.0000302946014403,11.523806217041015,2.0000302946014403,13.603966217041016L2.0000302946014403,14.003966217041015Q2.0000302946014403,14.069626217041016,1.9872202946014403,14.134026217041015Q1.9744102946014404,14.198426217041016,1.9492832946014405,14.259086217041016Q1.9241552946014404,14.319756217041014,1.8876762946014405,14.374346217041015Q1.8511972946014406,14.428946217041016,1.8047672946014404,14.475366217041016Q1.7583382946014403,14.521796217041015,1.7037432946014404,14.558276217041016Q1.6491482946014404,14.594756217041017,1.5884852946014405,14.619886217041016Q1.5278222946014404,14.645016217041015,1.4634232946014405,14.657826217041016Q1.3990241946014403,14.670636217041015,1.3333632946014404,14.670636217041015Q1.2677023946014405,14.670636217041015,1.2033032946014404,14.657826217041016Q1.1389042946014405,14.645016217041015,1.0782412946014404,14.619886217041016Q1.0175782946014404,14.594756217041017,0.9629832946014405,14.558276217041016Q0.9083882946014404,14.521796217041015,0.8619592946014405,14.475366217041016Q0.8155292946014404,14.428946217041016,0.7790502946014405,14.374346217041015Q0.7425712946014404,14.319756217041014,0.7174432946014404,14.259086217041016Q0.6923162946014404,14.198426217041016,0.6795062946014404,14.134026217041015Q0.6666962946014404,14.069626217041016,0.6666962946014404,14.003966217041015L0.6666962946014404,13.603966217041016Q0.6666962946014404,12.266776217041016,0.7051602946014405,11.795936217041016Q0.7701092946014404,11.000866217041015,1.0294262946014405,10.491174217041015Q1.5227992946014404,9.523402217041015,2.4905732946014405,9.030029217041015Q2.5490732946014405,9.000206217041015,2.6122632946014406,8.982369217041015Q2.67545329460144,8.964532217041016,2.7409132946014405,8.959366217041016Q2.8063632946014403,8.954200217041016,2.8715732946014407,8.961903217041016Q2.9367832946014403,8.969606217041015,2.9992332946014404,8.989883217041015Q3.0616832946014405,9.010159217041016,3.11898329460144,9.042230217041016Q3.1762732946014403,9.074301217041016,3.2262132946014406,9.116933217041016Q3.2761532946014404,9.159565217041015,3.3168132946014404,9.211121217041015Q3.3574832946014403,9.262677217041016,3.3873032946014403,9.321174217041015Q3.4171232946014403,9.379672217041016,3.4349632946014403,9.442864217041016Q3.4527932946014404,9.506056217041015,3.4579632946014405,9.571513317041015Q3.4631332946014406,9.636970617041015,3.4554232946014403,9.702178117041015Q3.4477232946014404,9.767385217041015,3.4274432946014404,9.829837217041016Q3.4071732946014404,9.892289217041016,3.3751032946014403,9.949585217041015Q3.3430332946014403,10.006881217041016,3.3003932946014407,10.056819217041015Q3.2577632946014408,10.106758217041016,3.2062032946014405,10.147419217041016Q3.1546532946014407,10.188081217041015,3.0961532946014403,10.217903217041016ZM3.4583632946014404,9.623966217041016Q3.4583632946014404,9.689463017041016,3.4455832946014406,9.753701217041016Q3.4328032946014404,9.817939217041015,3.4077432946014405,9.878450217041015Q3.3826732946014406,9.938962217041016,3.3462932946014403,9.993420217041015Q3.3099032946014404,10.047879217041016,3.2635932946014403,10.094192217041016Q3.2172732946014406,10.140505217041015,3.1628132946014405,10.176893217041016Q3.1083632946014403,10.213281217041015,3.0478432946014404,10.238346217041016Q2.9873332946014406,10.263410217041015,2.9231032946014404,10.276188217041016Q2.8588632946014405,10.288966217041015,2.7933632946014404,10.288966217041015Q2.7278632946014403,10.288966217041015,2.6636232946014404,10.276188217041016Q2.59939329460144,10.263410217041015,2.5388832946014404,10.238346217041016Q2.4783632946014404,10.213281217041015,2.4239132946014403,10.176893217041016Q2.36945329460144,10.140505217041015,2.3231372946014406,10.094192217041016Q2.2768242946014405,10.047879217041016,2.2404362946014404,9.993420217041015Q2.2040482946014404,9.938962217041016,2.1789832946014407,9.878450217041015Q2.1539192946014403,9.817939217041015,2.1411412946014403,9.753701217041016Q2.1283632946014404,9.689463017041016,2.1283632946014404,9.623966217041016Q2.1283632946014404,9.558469417041016,2.1411412946014403,9.494231217041015Q2.1539192946014403,9.429993217041016,2.1789832946014407,9.369482217041016Q2.2040482946014404,9.308970217041015,2.2404362946014404,9.254512217041016Q2.2768242946014405,9.200053217041015,2.3231372946014406,9.153740217041015Q2.36945329460144,9.107427217041016,2.4239132946014403,9.071039217041015Q2.4783632946014404,9.034651217041016,2.5388832946014404,9.009586217041015Q2.59939329460144,8.984522217041016,2.6636232946014404,8.971744217041016Q2.7278632946014403,8.958966217041016,2.7933632946014404,8.958966217041016Q2.8588632946014405,8.958966217041016,2.9231032946014404,8.971744217041016Q2.9873332946014406,8.984522217041016,3.0478432946014404,9.009586217041015Q3.1083632946014403,9.034651217041016,3.1628132946014405,9.071039217041015Q3.2172732946014406,9.107427217041016,3.2635932946014403,9.153740217041015Q3.3099032946014404,9.200053217041015,3.3462932946014403,9.254512217041016Q3.3826732946014406,9.308970217041015,3.4077432946014405,9.369482217041016Q3.4328032946014404,9.429993217041016,3.4455832946014406,9.494231217041015Q3.4583632946014404,9.558469417041016,3.4583632946014404,9.623966217041016ZM1.9983632946014405,14.003966217041015Q1.9983632946014405,14.069466217041015,1.9855852946014405,14.133706217041016Q1.9728072946014406,14.197936217041015,1.9477432946014406,14.258446217041016Q1.9226782946014405,14.318966217041016,1.8862902946014404,14.373416217041015Q1.8499022946014403,14.427876217041016,1.8035892946014405,14.474196217041015Q1.7572762946014404,14.520506217041016,1.7028172946014404,14.556896217041015Q1.6483592946014405,14.593286217041015,1.5878472946014404,14.618346217041015Q1.5273362946014404,14.643406217041015,1.4630982946014404,14.656186217041014Q1.3988600946014405,14.668966217041016,1.3333632946014404,14.668966217041016Q1.2678664946014404,14.668966217041016,1.2036282946014405,14.656186217041014Q1.1393902946014405,14.643406217041015,1.0788792946014405,14.618346217041015Q1.0183672946014404,14.593286217041015,0.9639092946014405,14.556896217041015Q0.9094502946014404,14.520506217041016,0.8631372946014404,14.474196217041015Q0.8168242946014405,14.427876217041016,0.7804362946014405,14.373416217041015Q0.7440482946014404,14.318956217041016,0.7189832946014404,14.258446217041016Q0.6939192946014404,14.197936217041015,0.6811412946014405,14.133706217041016Q0.6683632946014404,14.069466217041015,0.6683632946014404,14.003966217041015Q0.6683632946014404,13.938466217041015,0.6811412946014405,13.874226217041016Q0.6939192946014404,13.809996217041014,0.7189832946014404,13.749486217041015Q0.7440482946014404,13.688966217041017,0.7804362946014405,13.634516217041016Q0.8168242946014405,13.580056217041015,0.8631372946014404,13.533736217041016Q0.9094502946014404,13.487426217041016,0.9639092946014405,13.451036217041015Q1.0183672946014404,13.414646217041016,1.0788792946014405,13.389586217041016Q1.1393902946014405,13.364526217041016,1.2036282946014405,13.351746217041015Q1.2678664946014404,13.338966217041015,1.3333632946014404,13.338966217041015Q1.3988600946014405,13.338966217041015,1.4630982946014404,13.351746217041015Q1.5273362946014404,13.364526217041016,1.5878472946014404,13.389586217041016Q1.6483592946014405,13.414646217041016,1.7028172946014404,13.451036217041015Q1.7572762946014404,13.487426217041016,1.8035892946014405,13.533736217041016Q1.8499022946014403,13.580056217041015,1.8862902946014404,13.634516217041016Q1.9226782946014405,13.688966217041017,1.9477432946014406,13.749486217041015Q1.9728072946014406,13.809996217041014,1.9855852946014405,13.874226217041016Q1.9983632946014405,13.938466217041015,1.9983632946014405,14.003966217041015Z" fill="#333333" fill-opacity="1"/></g></g></g></svg>